<?xml version="1.0" encoding="UTF-8"?>
<svg id="b" data-name="Capa 2" xmlns="http://www.w3.org/2000/svg" viewBox="0 0 766.62 516.5">
  <defs>
    <style>
      .d {
        fill: #ffdbb2;
      }

      .e {
        fill: green;
      }

      .f {
        fill: red;
      }

      .g {
        fill: #1d1d1b;
      }
    </style>
  </defs>
  <g id="c" data-name="Capa 1">
    <g>
      <g>
        <g>
          <path class="g" d="M198.91,74.64h-14.49l-2.31,5.05h-7.86l17.29-37.11h.22l17.32,37.11h-7.88l-2.29-5.05Zm-2.83-6.2l-4.4-9.68-4.42,9.68h8.83Z"/>
          <path class="g" d="M209.7,73.45l5.82-4.09c1.59,2.56,3.91,3.73,7.03,3.73,3.41,0,5.71-1.39,5.71-3.32,0-2.65-4.33-4.74-8.13-6.63-4.07-2.02-8.54-4.25-8.54-10.02,0-6.27,5.3-10.4,11.95-10.4,4.94,0,9.03,2.04,10.67,6.42l-5.37,3.75c-1.08-2.16-3.17-3.03-5.19-3.03-2.72,0-4.74,1.57-4.74,3.44,0,2.16,2.74,2.9,6.9,4.85,6,2.83,9.77,5.88,9.77,11.46,0,6.6-5.39,10.8-13.14,10.8-5.93,0-10.31-2.47-12.74-6.96Z"/>
          <path class="g" d="M239.99,43.49h7.28v36.21h-7.28V43.49Z"/>
          <path class="g" d="M260.83,50.65v7.08h12.49v7.25h-12.49v7.48h14.55v7.23h-21.83V43.49h21.83v7.17h-14.55Z"/>
          <path class="g" d="M309.85,43.4v36.97h-.34l-21.5-20.91v20.28h-7.28V42.81h.36l21.45,20.87v-20.28h7.3Z"/>
          <path class="g" d="M339.06,50.7h-8.89v29h-7.3v-29h-8.92v-7.21h25.11v7.21Z"/>
          <path class="g" d="M339.79,61.63c0-10.4,8.47-18.89,18.82-18.89s18.84,8.49,18.84,18.89-8.49,18.75-18.87,18.75-18.8-8.45-18.8-18.75Zm30.3-.04c0-6.33-5.17-11.5-11.5-11.5s-11.46,5.17-11.46,11.5,5.14,11.43,11.46,11.43,11.5-5.14,11.5-11.43Z"/>
          <path class="g" d="M393.77,73.45l5.82-4.09c1.59,2.56,3.91,3.73,7.03,3.73,3.41,0,5.71-1.39,5.71-3.32,0-2.65-4.33-4.74-8.13-6.63-4.07-2.02-8.54-4.25-8.54-10.02,0-6.27,5.3-10.4,11.95-10.4,4.94,0,9.03,2.04,10.67,6.42l-5.37,3.75c-1.08-2.16-3.17-3.03-5.19-3.03-2.72,0-4.74,1.57-4.74,3.44,0,2.16,2.74,2.9,6.9,4.85,6,2.83,9.77,5.88,9.77,11.46,0,6.6-5.39,10.8-13.14,10.8-5.93,0-10.31-2.47-12.74-6.96Z"/>
          <path class="g" d="M431.34,50.65v7.08h12.49v7.25h-12.49v7.48h14.55v7.23h-21.83V43.49h21.83v7.17h-14.55Z"/>
          <path class="g" d="M473.08,72.46v7.23h-21.83V43.49h7.28v28.97h14.55Z"/>
          <path class="g" d="M484.45,50.65v7.08h12.49v7.25h-12.49v7.48h14.55v7.23h-21.83V43.49h21.83v7.17h-14.55Z"/>
          <path class="g" d="M502.78,61.61c0-10.22,8.6-18.87,18.8-18.87,4.72,.07,8.89,1.93,12.69,5.59l-4.2,5.73c-2.47-2.43-5.44-3.91-8.56-3.91-5.82,0-11.37,5.17-11.37,11.5s5.75,11.43,11.34,11.43c3.32,0,6.2-1.77,8.6-4.13l4.18,5.88c-3.19,3.17-7.08,5.55-12.56,5.55-10.44,0-18.93-8.6-18.93-18.78Z"/>
          <path class="g" d="M535.25,61.61c0-10.22,8.6-18.87,18.8-18.87,4.72,.07,8.89,1.93,12.69,5.59l-4.2,5.73c-2.47-2.43-5.44-3.91-8.56-3.91-5.82,0-11.37,5.17-11.37,11.5s5.75,11.43,11.34,11.43c3.32,0,6.2-1.77,8.6-4.13l4.18,5.88c-3.19,3.17-7.08,5.55-12.56,5.55-10.44,0-18.93-8.6-18.93-18.78Z"/>
          <path class="g" d="M570.83,43.49h7.28v36.21h-7.28V43.49Z"/>
          <path class="g" d="M582.83,61.63c0-10.4,8.47-18.89,18.82-18.89s18.84,8.49,18.84,18.89-8.49,18.75-18.87,18.75-18.8-8.45-18.8-18.75Zm30.3-.04c0-6.33-5.17-11.5-11.5-11.5s-11.46,5.17-11.46,11.5,5.14,11.43,11.46,11.43,11.5-5.14,11.5-11.43Z"/>
          <path class="g" d="M654.34,43.4v36.97h-.34l-21.5-20.91v20.28h-7.28V42.81h.36l21.45,20.87v-20.28h7.3Z"/>
          <path class="g" d="M682.62,74.64h-14.49l-2.31,5.05h-7.86l17.29-37.11h.22l17.32,37.11h-7.88l-2.29-5.05Zm-2.83-6.2l-4.4-9.68-4.42,9.68h8.83Z"/>
          <path class="g" d="M725.8,61.63c0,11.23-7.14,18.06-18.84,18.06h-10.53V43.51l10.53-.02c11.7-.02,18.84,6.85,18.84,18.15Zm-7.34-.02c0-6.78-4.36-10.92-11.52-10.92h-3.26v21.74h3.32c7.12,0,11.46-4.09,11.46-10.83Z"/>
          <path class="g" d="M728.96,61.63c0-10.4,8.47-18.89,18.82-18.89s18.84,8.49,18.84,18.89-8.49,18.75-18.87,18.75-18.8-8.45-18.8-18.75Zm30.3-.04c0-6.33-5.17-11.5-11.5-11.5s-11.46,5.17-11.46,11.5,5.14,11.43,11.46,11.43,11.5-5.14,11.5-11.43Z"/>
        </g>
        <circle class="e" cx="61.5" cy="61.5" r="61.5"/>
      </g>
      <g>
        <g>
          <path class="g" d="M198.91,271.36h-14.49l-2.31,5.05h-7.86l17.29-37.11h.22l17.32,37.11h-7.88l-2.29-5.05Zm-2.83-6.2l-4.4-9.68-4.42,9.68h8.83Z"/>
          <path class="g" d="M209.7,270.17l5.82-4.09c1.59,2.56,3.91,3.73,7.03,3.73,3.41,0,5.71-1.39,5.71-3.32,0-2.65-4.33-4.74-8.13-6.63-4.07-2.02-8.54-4.25-8.54-10.02,0-6.27,5.3-10.4,11.95-10.4,4.94,0,9.03,2.04,10.67,6.42l-5.37,3.75c-1.08-2.16-3.17-3.03-5.19-3.03-2.72,0-4.74,1.57-4.74,3.44,0,2.16,2.74,2.9,6.9,4.85,6,2.83,9.77,5.88,9.77,11.46,0,6.6-5.39,10.8-13.14,10.8-5.93,0-10.31-2.47-12.74-6.96Z"/>
          <path class="g" d="M239.99,240.2h7.28v36.21h-7.28v-36.21Z"/>
          <path class="g" d="M260.83,247.37v7.08h12.49v7.25h-12.49v7.48h14.55v7.23h-21.83v-36.21h21.83v7.17h-14.55Z"/>
          <path class="g" d="M309.85,240.11v36.97h-.34l-21.5-20.91v20.28h-7.28v-36.93h.36l21.45,20.87v-20.28h7.3Z"/>
          <path class="g" d="M339.06,247.41h-8.89v29h-7.3v-29h-8.92v-7.21h25.11v7.21Z"/>
          <path class="g" d="M339.79,258.35c0-10.4,8.47-18.89,18.82-18.89s18.84,8.49,18.84,18.89-8.49,18.75-18.87,18.75-18.8-8.45-18.8-18.75Zm30.3-.04c0-6.33-5.17-11.5-11.5-11.5s-11.46,5.17-11.46,11.5,5.14,11.43,11.46,11.43,11.5-5.14,11.5-11.43Z"/>
          <path class="g" d="M394.09,258.35c0-10.4,8.47-18.89,18.82-18.89s18.84,8.49,18.84,18.89-8.49,18.75-18.87,18.75-18.8-8.45-18.8-18.75Zm30.3-.04c0-6.33-5.17-11.5-11.5-11.5s-11.46,5.17-11.46,11.5,5.14,11.43,11.46,11.43,11.5-5.14,11.5-11.43Z"/>
          <path class="g" d="M434.91,258.33c0-10.22,8.6-18.87,18.8-18.87,4.72,.07,8.89,1.93,12.69,5.59l-4.2,5.73c-2.47-2.43-5.44-3.91-8.56-3.91-5.82,0-11.37,5.17-11.37,11.5s5.75,11.43,11.34,11.43c3.32,0,6.2-1.77,8.6-4.13l4.18,5.88c-3.19,3.17-7.08,5.55-12.56,5.55-10.44,0-18.93-8.6-18.93-18.78Z"/>
          <path class="g" d="M470.18,263.02v-22.82h7.32v22.8c0,3.95,3.12,6.83,6.63,6.83s6.67-2.9,6.67-6.83v-22.8h7.32v22.82c0,8.2-6.27,14.17-13.97,14.17s-13.97-5.97-13.97-14.17Z"/>
          <path class="g" d="M504.11,240.2h12.71c7.01,0,12.74,5.5,12.74,12.24s-5.73,12.2-12.74,12.2h-5.44v11.77h-7.28v-36.21Zm18.17,12.17c0-2.74-2.45-4.96-5.46-4.96h-5.44v10.02l5.44,.02c3.01,.02,5.46-2.27,5.46-5.08Z"/>
          <path class="g" d="M548.9,271.36h-14.49l-2.31,5.05h-7.86l17.29-37.11h.22l17.32,37.11h-7.88l-2.29-5.05Zm-2.83-6.2l-4.4-9.68-4.42,9.68h8.83Z"/>
          <path class="g" d="M592.08,258.35c0,11.23-7.14,18.06-18.84,18.06h-10.53v-36.18l10.53-.02c11.7-.02,18.84,6.85,18.84,18.15Zm-7.34-.02c0-6.78-4.36-10.92-11.52-10.92h-3.26v21.74h3.32c7.12,0,11.46-4.09,11.46-10.83Z"/>
          <path class="g" d="M595.23,258.35c0-10.4,8.47-18.89,18.82-18.89s18.84,8.49,18.84,18.89-8.49,18.75-18.87,18.75-18.8-8.45-18.8-18.75Zm30.3-.04c0-6.33-5.17-11.5-11.5-11.5s-11.46,5.17-11.46,11.5,5.14,11.43,11.46,11.43,11.5-5.14,11.5-11.43Z"/>
        </g>
        <circle class="f" cx="61.5" cy="258.25" r="61.5"/>
      </g>
      <g>
        <g>
          <path class="g" d="M198.91,468.14h-14.49l-2.31,5.05h-7.86l17.29-37.11h.22l17.32,37.11h-7.88l-2.29-5.05Zm-2.83-6.2l-4.4-9.68-4.42,9.68h8.83Z"/>
          <path class="g" d="M209.7,466.95l5.82-4.09c1.59,2.56,3.91,3.73,7.03,3.73,3.41,0,5.71-1.39,5.71-3.32,0-2.65-4.33-4.74-8.13-6.63-4.07-2.02-8.54-4.25-8.54-10.02,0-6.27,5.3-10.4,11.95-10.4,4.94,0,9.03,2.04,10.67,6.42l-5.37,3.75c-1.08-2.16-3.17-3.03-5.19-3.03-2.72,0-4.74,1.57-4.74,3.44,0,2.16,2.74,2.9,6.9,4.85,6,2.83,9.77,5.88,9.77,11.46,0,6.6-5.39,10.8-13.14,10.8-5.93,0-10.31-2.47-12.74-6.96Z"/>
          <path class="g" d="M239.99,436.99h7.28v36.21h-7.28v-36.21Z"/>
          <path class="g" d="M260.83,444.15v7.08h12.49v7.25h-12.49v7.48h14.55v7.23h-21.83v-36.21h21.83v7.17h-14.55Z"/>
          <path class="g" d="M309.85,436.9v36.97h-.34l-21.5-20.91v20.28h-7.28v-36.93h.36l21.45,20.87v-20.28h7.3Z"/>
          <path class="g" d="M339.06,444.2h-8.89v29h-7.3v-29h-8.92v-7.21h25.11v7.21Z"/>
          <path class="g" d="M339.79,455.13c0-10.4,8.47-18.89,18.82-18.89s18.84,8.49,18.84,18.89-8.49,18.75-18.87,18.75-18.8-8.45-18.8-18.75Zm30.3-.04c0-6.33-5.17-11.5-11.5-11.5s-11.46,5.17-11.46,11.5,5.14,11.43,11.46,11.43,11.5-5.14,11.5-11.43Z"/>
          <path class="g" d="M425.04,455.13c0,11.23-7.14,18.06-18.84,18.06h-10.53v-36.18l10.53-.02c11.7-.02,18.84,6.85,18.84,18.15Zm-7.34-.02c0-6.78-4.36-10.92-11.52-10.92h-3.26v21.74h3.32c7.12,0,11.46-4.09,11.46-10.83Z"/>
          <path class="g" d="M429.77,436.99h7.28v36.21h-7.28v-36.21Z"/>
          <path class="g" d="M441.45,466.95l5.82-4.09c1.59,2.56,3.91,3.73,7.03,3.73,3.41,0,5.71-1.39,5.71-3.32,0-2.65-4.33-4.74-8.13-6.63-4.07-2.02-8.54-4.25-8.54-10.02,0-6.27,5.3-10.4,11.95-10.4,4.94,0,9.03,2.04,10.67,6.42l-5.37,3.75c-1.08-2.16-3.17-3.03-5.19-3.03-2.72,0-4.74,1.57-4.74,3.44,0,2.16,2.74,2.9,6.9,4.85,6,2.83,9.77,5.88,9.77,11.46,0,6.6-5.39,10.8-13.14,10.8-5.93,0-10.31-2.47-12.74-6.96Z"/>
          <path class="g" d="M471.73,436.99h12.71c7.01,0,12.74,5.5,12.74,12.24s-5.73,12.2-12.74,12.2h-5.44v11.77h-7.28v-36.21Zm18.17,12.17c0-2.74-2.45-4.96-5.46-4.96h-5.44v10.02l5.44,.02c3.01,.02,5.46-2.27,5.46-5.08Z"/>
          <path class="g" d="M499.71,455.13c0-10.4,8.47-18.89,18.82-18.89s18.84,8.49,18.84,18.89-8.49,18.75-18.87,18.75-18.8-8.45-18.8-18.75Zm30.3-.04c0-6.33-5.17-11.5-11.5-11.5s-11.46,5.17-11.46,11.5,5.14,11.43,11.46,11.43,11.5-5.14,11.5-11.43Z"/>
          <path class="g" d="M571.21,436.9v36.97h-.34l-21.5-20.91v20.28h-7.28v-36.93h.36l21.45,20.87v-20.28h7.3Z"/>
          <path class="g" d="M577.51,436.99h7.28v36.21h-7.28v-36.21Z"/>
          <path class="g" d="M616.05,462.21c0,5.35-3.84,10.98-11.3,10.98h-13.68v-36.21h9.88c6.42,0,10.51,4.72,10.51,9.59,0,3.84-2.54,6.22-3.41,6.22,3.48,0,8,3.59,8,9.41Zm-17.72-18.15v7.08h2.94c1.73,0,3.41-1.48,3.41-3.59s-1.59-3.48-3.28-3.48h-3.08Zm10.62,17.63c0-2.09-1.44-4.18-4.9-4.18h-5.73v8.58h5.75c2.36,0,4.87-1.62,4.87-4.4Z"/>
          <path class="g" d="M641.98,465.96v7.23h-21.83v-36.21h7.28v28.97h14.55Z"/>
          <path class="g" d="M653.35,444.15v7.08h12.49v7.25h-12.49v7.48h14.55v7.23h-21.83v-36.21h21.83v7.17h-14.55Z"/>
        </g>
        <circle class="d" cx="61.5" cy="455" r="61.5"/>
      </g>
    </g>
  </g>
</svg>