<?xml version="1.0" encoding="utf-8"?>
<!-- Generator: Adobe Illustrator 26.5.0, SVG Export Plug-In . SVG Version: 6.00 Build 0)  -->
<svg version="1.1"
	 id="svg2" xmlns:sodipodi="http://sodipodi.sourceforge.net/DTD/sodipodi-0.dtd" xmlns:inkscape="http://www.inkscape.org/namespaces/inkscape" xmlns:cc="http://creativecommons.org/ns#" xmlns:svg="http://www.w3.org/2000/svg" xmlns:rdf="http://www.w3.org/1999/02/22-rdf-syntax-ns#" xmlns:dc="http://purl.org/dc/elements/1.1/"
	 xmlns="http://www.w3.org/2000/svg" xmlns:xlink="http://www.w3.org/1999/xlink" x="0px" y="0px" viewBox="0 0 409.7 1761.6"
	 style="enable-background:new 0 0 409.7 1761.6;" xml:space="preserve">
<style type="text/css">
	.st0{fill:none;enable-background:new    ;}
	.st1{fill:none;stroke:#000000;stroke-width:2.813;}
	.st2{fill:none;stroke:#000000;stroke-width:2.6586;}
	.st3{fill:none;stroke:#000000;stroke-width:1.0577;}
	.st4{fill:none;stroke:#000000;stroke-width:1.7525;}
	.st5{fill:none;stroke:#000000;stroke-width:1.7598;}
	.st6{fill:none;stroke:#000000;stroke-width:2.5427;stroke-linejoin:round;}
	.st7{fill:none;stroke:#000000;stroke-width:1.5136;}
	.st8{fill-rule:evenodd;clip-rule:evenodd;}
	.st9{fill:none;stroke:#000000;stroke-width:2.1365;}
	.st10{fill-rule:evenodd;clip-rule:evenodd;fill:#FFFFFF;stroke:#000000;stroke-width:2.1998;stroke-miterlimit:1.1;}
	.st11{fill-rule:evenodd;clip-rule:evenodd;fill:#FFFFFF;stroke:#000000;stroke-width:1.3281;stroke-linejoin:round;}
	.st12{fill:none;stroke:#000000;stroke-width:2.5705;}
	.st13{fill:none;stroke:#000000;stroke-width:2.9871;}
	.st14{fill:none;stroke:#000000;stroke-width:2.6103;}
	.st15{fill:none;stroke:#000000;stroke-width:2.7966;}
	.st16{fill:none;stroke:#000000;stroke-width:1.3051;stroke-linejoin:round;}
	.st17{fill:none;stroke:#000000;stroke-width:1.3051;}
	.st18{fill:none;stroke:#000000;stroke-width:2.6657;}
	.st19{fill:none;stroke:#000000;stroke-width:2.7017;}
	.st20{fill-rule:evenodd;clip-rule:evenodd;fill:#FFFFFF;stroke:#000000;stroke-width:2.1259;stroke-miterlimit:1.1;}
	.st21{fill-rule:evenodd;clip-rule:evenodd;fill:#FFFFFF;stroke:#000000;stroke-width:1.2835;stroke-linejoin:round;}
	.st22{fill:none;stroke:#000000;stroke-width:2.6302;stroke-opacity:0.3436;}
	.st23{fill:none;stroke:#000000;stroke-width:2.6643;stroke-opacity:0.3436;}
	.st24{fill:none;stroke:#000000;stroke-width:1.7383;}
	.st25{fill:none;stroke:#000000;stroke-width:3.173;stroke-dasharray:12.6918,6.3459;}
</style>
<defs>
	
		<inkscape:perspective  id="perspective10" inkscape:persp3d-origin="372.04724 : 350.78739 : 1" inkscape:vp_x="0 : 526.18109 : 1" inkscape:vp_y="0 : 1000 : 0" inkscape:vp_z="744.09448 : 526.18109 : 1" sodipodi:type="inkscape:persp3d">
		</inkscape:perspective>
</defs>
<sodipodi:namedview  bordercolor="#666666" borderopacity="1.0" gridtolerance="10000" guidetolerance="10" id="base" inkscape:current-layer="layer1" inkscape:cx="395.43875" inkscape:cy="-57.064505" inkscape:document-units="px" inkscape:guide-bbox="true" inkscape:pageopacity="0.0" inkscape:pageshadow="2" inkscape:window-height="712" inkscape:window-width="928" inkscape:window-x="347" inkscape:window-y="324" inkscape:zoom="0.98994949" objecttolerance="10" pagecolor="#ffffff" showgrid="false" showguides="true">
	</sodipodi:namedview>
<path class="st0" d="M0,0"/>
<path class="st0" d="M0,0"/>
<path class="st0" d="M0,0"/>
<path class="st0" d="M0,0"/>
<g>
	<path id="path2383" class="st1" d="M93.8,1572.1V278.4c0,0,4.5-40.5,10.6-66.8s26.1-89.4,39.9-118.3s29.1-59.5,36.7-70
		c7.9-11.7,7.7-11.3,7.7-11.3"/>
	<path id="path2385" sodipodi:nodetypes="ccssscscsc" class="st2" d="M188.8,11.9c0,0,4.2-9.8,15.9-10.5s18.1,6.1,18.1,6.1
		s4.1,2.6,11,13.1s24.7,42.1,37,71s30.2,92,35.7,118.3s9.5,66.8,9.5,66.8v1293.8c0,0-9.6,189.8-115.2,189.8S93.8,1571,93.8,1571"/>
</g>
<g>
	<g id="g5029" transform="matrix(1,0,0,0.8682338,24.642857,71.983688)">
		<path id="path5005" class="st3" d="M114.1,179.2c3.6-20,7.5-43.9,11.8-53.5c4.3-9.6,20.7-39.2,23.3-42.2
			c2.6-3,31.2-25.7,31.2-25.7"/>
		<path id="path5009" class="st3" d="M132.9,172c2.6-14.2,5.4-31.3,8.4-38.1s14.7-27.9,16.6-30c1.9-2.2,22.2-18.3,22.2-18.3"/>
		<path id="path5015" class="st3" d="M113.5,179.4c0,0,13.7-3.1,16-4.9c2.4-1.8,3.3-3.1,3.3-3.1"/>
		<path id="path5019" class="st3" d="M140.5,137.3l-16.7-3.7"/>
		<path id="path5021" class="st3" d="M156.7,105.9l-8.3-20.3"/>
		<path id="path5027" class="st3" d="M180.4,85.6v-27"/>
	</g>
	<g id="g5037" transform="matrix(1,0,0,-0.8682338,24.642857,1019.8519)">
		<path id="path5039" class="st3" d="M246.3,912.5c-3.6,20-7.5,43.9-11.8,53.5s-20.7,39.2-23.3,42.2s-31.2,25.7-31.2,25.7"/>
		<path id="path5041" class="st3" d="M227.5,919.8c-2.6,14.2-5.4,31.3-8.4,38.1s-14.7,27.9-16.6,30s-22.2,18.3-22.2,18.3"/>
		<path id="path5043" class="st3" d="M246.9,912.4c0,0-13.7,3.1-16,4.9c-2.4,1.8-3.3,3.1-3.3,3.1"/>
		<path id="path5045" class="st3" d="M219.9,954.4l16.7,3.7"/>
		<path id="path5047" class="st3" d="M203.7,985.8l8.3,20.3"/>
		<path id="path5049" class="st3" d="M180,1006.1v27.1"/>
	</g>
</g>
<g>
	<rect id="rect2391" x="96.3" y="269.7" class="st4" width="80.2" height="110.4"/>
	<rect id="rect3163" x="235.1" y="270.1" class="st5" width="80.9" height="110.4"/>
	
		<path id="path3165" sodipodi:cx="188.14091" sodipodi:cy="489.70721" sodipodi:rx="7.8286819" sodipodi:ry="7.5761442" sodipodi:type="arc" class="st6" d="
		M239.3,369.5c1.1,1.1,0.8,2.5-0.7,3.2s-3.6,0.4-4.7-0.6c-1.1-1.1-0.8-2.5,0.7-3.2C236,368.2,238.2,368.5,239.3,369.5L239.3,369.5z"
		/>
	<polygon id="rect3167" class="st7" points="199,339.4 199.2,339.3 233.7,368.5 233.4,368.6 	"/>
	<path id="path3205" class="st8" d="M180.4,360.6l-4.1,5.6l-2.4-6C175.7,361.2,178.3,361.4,180.4,360.6z"/>
	<path id="path4478" class="st9" d="M177.4,269.7l58.4,0.3"/>
	<path id="path3205_00000112599171906553382140000012297742767781185421_" class="st8" d="M227.2,292.6l8.9,2.2l-8.9,2.2
		C228.7,295.7,228.6,293.9,227.2,292.6z"/>
	<path id="path3205_00000119098166370022609550000015624940976028860855_" class="st8" d="M184.6,296.9l-8.9-2.2l8.9-2.2
		C183.2,293.9,183.2,295.7,184.6,296.9z"/>
	<rect id="rect5975" x="96.5" y="295.9" class="st10" width="38.2" height="59.7"/>
	<rect id="rect5977" x="93.8" y="295.8" class="st11" width="13.8" height="60.2"/>
</g>
<g>
	<rect id="rect5879" x="234.8" y="1366.3" class="st12" width="79.2" height="73.5"/>
	<rect id="rect5883" x="207" y="1513.4" class="st13" width="105.6" height="74.5"/>
	<path id="path5887" sodipodi:nodetypes="cccsccccc" class="st14" d="M128.7,1514.2H94.2v60.3c0,0,6.4,42.6,10.9,73.9
		s21.7,61.8,21.7,61.8h13.4v-146.7h-11.5V1514.2z"/>
	<path id="path5889" sodipodi:nodetypes="cccscc" class="st15" d="M128.6,1514.1v48.9h15.2c0,0,15.9-3.9,15.9-24.4
		c0-20.4-16-24.4-16-24.4L128.6,1514.1z"/>
	
		<path id="path5891" sodipodi:cx="730.21399" sodipodi:cy="68.013367" sodipodi:rx="6.1871843" sodipodi:ry="3.4092648" sodipodi:type="arc" class="st16" d="
		M143.4,1555c-4.8,0-8.6-7.5-8.6-16.7s3.9-16.7,8.6-16.7c4.8,0,8.6,7.5,8.6,16.7C152,1547.6,148.2,1555,143.4,1555L143.4,1555z"/>
	
		<path id="path5893" sodipodi:cx="730.21399" sodipodi:cy="68.013367" sodipodi:rx="6.1871843" sodipodi:ry="3.4092648" sodipodi:type="arc" class="st16" d="
		M177.8,1578.1c-5.4,0-9.7-7.4-9.7-16.6s4.3-16.6,9.7-16.6s9.7,7.4,9.7,16.6S183.1,1578.1,177.8,1578.1L177.8,1578.1z"/>
	<path id="path5895" class="st17" d="M158.1,1550.6l12.8-0.3c0,0,1-5.4,6.7-5.4s7,4.4,7,4.4h21.7"/>
	<path id="path5897" class="st14" d="M207.8,1588l-66.4,0.7"/>
	<path id="path5899" class="st18" d="M205.7,1513.2l-75.6,0.6"/>
	<path id="path5901" class="st19" d="M191.4,1431.6l-82.6,0.6"/>
	<rect id="rect5979" x="107.7" y="1443.4" class="st20" width="36.1" height="59"/>
	<rect id="rect5981" x="105.1" y="1443.2" class="st21" width="13.1" height="59.5"/>
	<rect id="rect5983" x="276.3" y="1444.8" class="st20" width="36.1" height="59"/>
	<rect id="rect5985" x="301.9" y="1444.7" class="st21" width="13.1" height="59.5"/>
	<path id="text6013" d="M266.5,1404.2h3v11.4h-9.4c-1.3-1.8-2.3-3.6-3-5.4s-1-3.8-1-5.7c0-2.7,0.5-5.1,1.6-7.2s2.6-3.8,4.6-4.9
		s4.3-1.7,6.8-1.7s4.8,0.5,6.9,1.6s3.7,2.7,4.8,4.7c1,2.1,1.6,4.4,1.6,7.1c0,2-0.3,3.7-0.9,5.3s-1.4,2.8-2.5,3.7
		c-1.1,0.9-2.4,1.6-4.1,2l-0.8-3.2c1.3-0.4,2.3-0.9,3-1.5s1.3-1.5,1.8-2.6c0.4-1.1,0.7-2.4,0.7-3.7c0-1.6-0.2-3-0.7-4.2
		s-1.1-2.2-1.8-2.9c-0.8-0.7-1.6-1.3-2.5-1.7c-1.6-0.7-3.3-1-5.1-1c-2.3,0-4.1,0.4-5.7,1.2s-2.7,2-3.4,3.6c-0.7,1.6-1.1,3.3-1.1,5
		c0,1.5,0.3,3.1,0.8,4.5c0.6,1.5,1.2,2.6,1.8,3.4h4.7L266.5,1404.2L266.5,1404.2z"/>
	<path id="text6017" d="M244.2,1469.1h25.3v3.6h-25.3V1469.1z"/>
	<path id="text6021" d="M171.5,1529.5h22.4v-8.9h3v21.4h-3v-8.9h-22.4V1529.5z"/>
	<path id="text6025" d="M246.6,1535.3h25.3v10.1c0,2.1-0.3,3.7-0.8,5c-0.5,1.2-1.3,2.2-2.4,2.9c-1.1,0.7-2.2,1.1-3.3,1.1
		c-1.1,0-2.1-0.3-3.1-0.9s-1.7-1.6-2.3-2.8c-0.4,1.6-1.2,2.9-2.3,3.8c-1.1,0.9-2.4,1.3-3.8,1.3c-1.2,0-2.3-0.3-3.3-0.8
		s-1.8-1.2-2.4-2c-0.6-0.8-1-1.8-1.3-3s-0.4-2.6-0.4-4.4L246.6,1535.3L246.6,1535.3z M261.3,1538.9v5.8c0,1.6,0.1,2.7,0.3,3.4
		c0.3,0.9,0.7,1.6,1.3,2.1s1.3,0.7,2.2,0.7c0.8,0,1.6-0.2,2.2-0.6s1.1-1,1.3-1.8s0.4-2.2,0.4-4.1v-5.4L261.3,1538.9L261.3,1538.9z
		 M249.6,1538.9v6.7c0,1.2,0,2,0.1,2.4c0.1,0.8,0.4,1.5,0.7,2.1s0.8,1,1.4,1.4c0.6,0.4,1.3,0.5,2.1,0.5c0.9,0,1.8-0.3,2.5-0.8
		s1.2-1.2,1.5-2.1s0.4-2.2,0.4-4v-6.2H249.6z"/>
	<path id="text6029" d="M156.3,1470.6h25.3v3.6h-25.3V1470.6z"/>
	<path id="path6033" class="st22" d="M234.8,1437.7l-0.9,74.9"/>
	<path id="path6035" class="st23" d="M149.5,1432.5l-0.9,79.8"/>
	<path id="path3205_00000127023751916016707490000001694905830314935689_" class="st8" d="M158.1,1504l-2.8,8.5l-3-8.4
		C154,1505.4,156.4,1505.4,158.1,1504z"/>
	<polygon id="rect6039" class="st24" points="187,1482.6 187.1,1482.4 207.8,1541 207.7,1541.2 	"/>
</g>
<path id="path6117" sodipodi:nodetypes="cccc" class="st25" d="M315.9,799.4l92.2,21.2v268.9l-92.2,21.2"/>
<path id="path6119" sodipodi:nodetypes="cccc" class="st25" d="M93.8,799.4L1.6,820.6v268.9l92.2,21.2"/>
</svg>
