<?xml version="1.0" encoding="UTF-8"?>
<svg xmlns="http://www.w3.org/2000/svg" xmlns:xlink="http://www.w3.org/1999/xlink" viewBox="0 0 643.11 517.92">
  <defs>
    <style>
      .bz {
        fill: url(#bb);
      }

      .ca {
        fill: url(#j);
      }

      .cb {
        fill: url(#p);
      }

      .cc {
        fill: url(#bw);
      }

      .cc, .cd, .ce, .cf, .cg, .ch {
        mix-blend-mode: overlay;
      }

      .ci {
        fill: url(#ba);
      }

      .cj {
        fill: url(#ay);
      }

      .ck {
        fill: url(#m);
      }

      .cl {
        fill: url(#aa);
      }

      .cm {
        fill: url(#al);
      }

      .cn {
        fill: url(#am);
      }

      .co {
        fill: url(#h);
        stroke: #00ae7e;
        stroke-width: 5.73px;
      }

      .co, .cp, .cq {
        stroke-miterlimit: 10;
      }

      .cr {
        fill: url(#aq);
      }

      .cs {
        fill: url(#r);
      }

      .ct {
        fill: #99ea5d;
      }

      .cu {
        fill: url(#bk);
      }

      .cv {
        fill: url(#t);
      }

      .cw {
        fill: url(#i);
      }

      .cx {
        fill: url(#k);
      }

      .cx, .cf, .ch {
        opacity: .5;
      }

      .cx, .cy {
        mix-blend-mode: multiply;
      }

      .cd {
        fill: url(#q);
      }

      .cz {
        fill: url(#ah);
      }

      .da {
        fill: url(#at);
      }

      .db {
        fill: url(#be);
      }

      .dc {
        fill: url(#bt);
      }

      .dd {
        fill: url(#af);
      }

      .de {
        fill: url(#as);
      }

      .df {
        fill: url(#ap);
      }

      .dg {
        isolation: isolate;
      }

      .dh {
        fill: #03a829;
      }

      .di {
        fill: url(#s);
      }

      .ce {
        fill: url(#by);
      }

      .dj {
        fill: url(#bq);
      }

      .cp {
        stroke: #99ea5d;
        stroke-width: 2.87px;
      }

      .cp, .cq {
        fill: none;
      }

      .dk {
        fill: url(#f);
      }

      .dl {
        fill: url(#bi);
      }

      .dm {
        fill: url(#g);
      }

      .cf {
        fill: url(#l);
      }

      .dn {
        fill: #79aaff;
      }

      .do {
        fill: url(#au);
      }

      .dp {
        fill: url(#bd);
      }

      .dq {
        fill: url(#ad);
      }

      .dr {
        fill: url(#bc);
      }

      .ds {
        fill: url(#az);
      }

      .dt {
        fill: url(#av);
      }

      .du {
        fill: url(#e);
      }

      .dv {
        fill: #24c426;
      }

      .dw {
        fill: url(#ai);
      }

      .cg {
        fill: url(#bu);
      }

      .dx {
        fill: url(#bh);
      }

      .dy {
        fill: url(#v);
      }

      .dz {
        fill: url(#ar);
      }

      .ea {
        fill: url(#aj);
      }

      .eb {
        fill: url(#br);
      }

      .ec {
        fill: url(#y);
      }

      .ed {
        fill: url(#bl);
      }

      .ee {
        fill: url(#o);
      }

      .ef {
        fill: url(#d);
      }

      .eg {
        fill: url(#x);
      }

      .eh {
        fill: url(#bm);
      }

      .ei {
        fill: url(#bn);
      }

      .cy {
        fill: #d6d8ce;
      }

      .ej {
        fill: url(#bg);
      }

      .ek {
        fill: url(#bp);
      }

      .el {
        fill: url(#bs);
      }

      .em {
        fill: url(#u);
      }

      .en {
        fill: url(#ae);
      }

      .eo {
        fill: url(#bj);
      }

      .ep {
        fill: url(#z);
      }

      .eq {
        fill: #383838;
      }

      .er {
        fill: url(#ag);
      }

      .es {
        fill: url(#bx);
      }

      .ch {
        fill: url(#n);
      }

      .cq {
        stroke: #24c426;
        stroke-width: 2.15px;
      }

      .et {
        fill: url(#an);
      }

      .eu {
        fill: url(#w);
      }

      .ev {
        fill: url(#ao);
      }

      .ew {
        fill: url(#ax);
      }

      .ex {
        fill: url(#bv);
      }

      .ey {
        fill: url(#bf);
      }

      .ez {
        fill: url(#ab);
      }

      .fa {
        fill: #36b954;
      }

      .fb {
        fill: #5795ff;
      }

      .fc {
        fill: url(#aw);
      }

      .fd {
        fill: url(#ac);
      }

      .fe {
        fill: #00ae7e;
      }

      .ff {
        fill: url(#bo);
      }

      .fg {
        fill: url(#ak);
      }
    </style>
    <linearGradient id="d" data-name="Gradiente sem nome 11" x1="4381.05" y1="-2085.68" x2="4246.07" y2="-2308.45" gradientTransform="translate(-1166.59 5021.82) rotate(-48.1)" gradientUnits="userSpaceOnUse">
      <stop offset="0" stop-color="#aab49b"/>
      <stop offset=".07" stop-color="#aeb7a0"/>
      <stop offset=".68" stop-color="#d0d4c8"/>
      <stop offset="1" stop-color="#dee0d8"/>
    </linearGradient>
    <linearGradient id="e" data-name="Gradiente sem nome 10" x1="2825.9" y1="-1741.74" x2="2727.02" y2="-1904.92" gradientTransform="translate(-1253.99 3183.55) rotate(-31.39)" gradientUnits="userSpaceOnUse">
      <stop offset="0" stop-color="#aab49b"/>
      <stop offset=".23" stop-color="#aeb8a0"/>
      <stop offset=".53" stop-color="#bcc3b0"/>
      <stop offset=".86" stop-color="#d2d6ca"/>
      <stop offset="1" stop-color="#dee0d8"/>
    </linearGradient>
    <linearGradient id="f" data-name="Gradiente sem nome 10" x1="11012.22" y1="4604.98" x2="10935.77" y2="4478.81" gradientTransform="translate(11504.33 4611.09) rotate(-135.74) scale(1 -1)" xlink:href="#e"/>
    <linearGradient id="g" data-name="Gradiente sem nome 10" x1="10818.01" y1="5088.67" x2="10683.03" y2="4865.9" gradientTransform="translate(11444.36 5021.82) rotate(-131.9) scale(1 -1)" xlink:href="#e"/>
    <linearGradient id="h" data-name="Gradiente sem nome 3" x1="9788.71" y1="97.36" x2="10193.91" y2="572.96" gradientTransform="translate(10267.36) rotate(-180) scale(1 -1)" gradientUnits="userSpaceOnUse">
      <stop offset="0" stop-color="#00ae7e"/>
      <stop offset=".15" stop-color="#03ac83"/>
      <stop offset=".33" stop-color="#0ea993"/>
      <stop offset=".55" stop-color="#20a4ad"/>
      <stop offset=".77" stop-color="#389dd2"/>
      <stop offset="1" stop-color="#5795ff"/>
    </linearGradient>
    <linearGradient id="i" data-name="Gradiente sem nome 9" x1="319.36" y1="187.71" x2="319.36" y2="381.44" gradientUnits="userSpaceOnUse">
      <stop offset="0" stop-color="#fff"/>
      <stop offset=".28" stop-color="#fbfbfa"/>
      <stop offset=".58" stop-color="#f0f1ed"/>
      <stop offset=".88" stop-color="#dee0d8"/>
      <stop offset="1" stop-color="#d6d8ce"/>
    </linearGradient>
    <linearGradient id="j" data-name="Gradiente sem nome 8" x1="236.36" y1="139.83" x2="443.18" y2="448.9" gradientUnits="userSpaceOnUse">
      <stop offset="0" stop-color="#99ea5d"/>
      <stop offset=".15" stop-color="#90e758"/>
      <stop offset=".4" stop-color="#77df4d"/>
      <stop offset=".7" stop-color="#50d23a"/>
      <stop offset="1" stop-color="#24c426"/>
    </linearGradient>
    <linearGradient id="k" data-name="Gradiente sem nome 7" x1="319.65" y1="127.69" x2="319.65" y2="393.57" gradientUnits="userSpaceOnUse">
      <stop offset="0" stop-color="#d6d8ce"/>
      <stop offset=".41" stop-color="#d4d6cc"/>
      <stop offset=".56" stop-color="#cdcfc5"/>
      <stop offset=".66" stop-color="#c1c3ba"/>
      <stop offset=".75" stop-color="#b1b2aa"/>
      <stop offset=".82" stop-color="#9b9c96"/>
      <stop offset=".88" stop-color="#80817c"/>
      <stop offset=".94" stop-color="#60615e"/>
      <stop offset=".99" stop-color="#3c3c3c"/>
      <stop offset="1" stop-color="#383838"/>
    </linearGradient>
    <linearGradient id="l" data-name="Gradiente sem nome 6" x1="326.17" y1="151.78" x2="244.02" y2="343.46" gradientUnits="userSpaceOnUse">
      <stop offset="0" stop-color="#d6d8ce"/>
      <stop offset=".51" stop-color="#d4d6cc"/>
      <stop offset=".7" stop-color="#ced1c5"/>
      <stop offset=".83" stop-color="#c4c9b9"/>
      <stop offset=".94" stop-color="#b5bda8"/>
      <stop offset="1" stop-color="#aab49b"/>
    </linearGradient>
    <linearGradient id="m" data-name="Gradiente sem nome 3" x1="63.21" y1="152.61" x2="480.85" y2="642.82" gradientTransform="matrix(1, 0, 0, 1, 0, 0)" xlink:href="#h"/>
    <linearGradient id="n" data-name="Gradiente sem nome 6" x1="98.25" y1="453.96" x2="538.32" y2="453.96" xlink:href="#l"/>
    <linearGradient id="o" data-name="Gradiente sem nome 4" x1="8539.36" y1="-394.63" x2="8644.35" y2="-416.92" gradientTransform="translate(9126.24 -396.9) rotate(174.47) scale(1 -1)" gradientUnits="userSpaceOnUse">
      <stop offset="0" stop-color="#24c426"/>
      <stop offset=".16" stop-color="#29c528"/>
      <stop offset=".36" stop-color="#39ca30"/>
      <stop offset=".58" stop-color="#53d33c"/>
      <stop offset=".82" stop-color="#78df4d"/>
      <stop offset="1" stop-color="#99ea5d"/>
    </linearGradient>
    <linearGradient id="p" data-name="Gradiente sem nome 2" x1="8590.01" y1="-392.51" x2="8584.99" y2="-364.75" gradientTransform="translate(9126.24 -396.9) rotate(174.47) scale(1 -1)" gradientUnits="userSpaceOnUse">
      <stop offset="0" stop-color="#d6d8ce"/>
      <stop offset=".36" stop-color="#c9cdbe"/>
      <stop offset="1" stop-color="#aab49b"/>
    </linearGradient>
    <linearGradient id="q" data-name="Gradiente sem nome 2" x1="8590.51" y1="-395.23" x2="8586.29" y2="-371.95" xlink:href="#p"/>
    <linearGradient id="r" data-name="Gradiente sem nome 2" x1="6854.33" y1="-1587.94" x2="6854.33" y2="-1591.88" gradientTransform="translate(-6263.28 -1567.18) scale(1 -1)" xlink:href="#p"/>
    <linearGradient id="s" data-name="Gradiente sem nome 5" x1="6854.33" y1="-1588.17" x2="6854.33" y2="-1591.64" gradientTransform="translate(-6263.43 -1566.53) scale(1 -1)" gradientUnits="userSpaceOnUse">
      <stop offset="0" stop-color="#aab49b"/>
      <stop offset=".64" stop-color="#c9cdbe"/>
      <stop offset="1" stop-color="#d6d8ce"/>
    </linearGradient>
    <linearGradient id="t" data-name="Gradiente sem nome 2" x1="6858.64" y1="-1587.94" x2="6858.64" y2="-1591.88" gradientTransform="translate(-6271.45 -1565.27) scale(1 -1)" xlink:href="#p"/>
    <linearGradient id="u" data-name="Gradiente sem nome 5" x1="6858.64" y1="-1588.17" x2="6858.64" y2="-1591.64" gradientTransform="translate(-6271.6 -1564.62) scale(1 -1)" xlink:href="#s"/>
    <linearGradient id="v" data-name="Gradiente sem nome 2" x1="6862.95" y1="-1587.94" x2="6862.95" y2="-1591.88" gradientTransform="translate(-6279.62 -1563.37) scale(1 -1)" xlink:href="#p"/>
    <linearGradient id="w" data-name="Gradiente sem nome 5" x1="6862.95" y1="-1588.17" x2="6862.95" y2="-1591.64" gradientTransform="translate(-6279.77 -1562.71) scale(1 -1)" xlink:href="#s"/>
    <linearGradient id="x" data-name="Gradiente sem nome 2" x1="6867.26" y1="-1587.94" x2="6867.26" y2="-1591.88" gradientTransform="translate(-6287.8 -1561.46) scale(1 -1)" xlink:href="#p"/>
    <linearGradient id="y" data-name="Gradiente sem nome 5" x1="6867.26" y1="-1588.17" x2="6867.26" y2="-1591.64" gradientTransform="translate(-6287.95 -1560.81) scale(1 -1)" xlink:href="#s"/>
    <linearGradient id="z" data-name="Gradiente sem nome 2" x1="6871.57" y1="-1587.94" x2="6871.57" y2="-1591.88" gradientTransform="translate(-6295.97 -1559.56) scale(1 -1)" xlink:href="#p"/>
    <linearGradient id="aa" data-name="Gradiente sem nome 5" x1="6871.57" y1="-1588.17" x2="6871.57" y2="-1591.64" gradientTransform="translate(-6296.12 -1558.9) scale(1 -1)" xlink:href="#s"/>
    <linearGradient id="ab" data-name="Gradiente sem nome 2" x1="6875.88" y1="-1587.94" x2="6875.88" y2="-1591.88" gradientTransform="translate(-6304.14 -1557.65) scale(1 -1)" xlink:href="#p"/>
    <linearGradient id="ac" data-name="Gradiente sem nome 5" x1="6875.88" y1="-1588.17" x2="6875.88" y2="-1591.64" gradientTransform="translate(-6304.41 -1556.48) scale(1 -1)" xlink:href="#s"/>
    <linearGradient id="ad" data-name="Gradiente sem nome 2" x1="6880.19" y1="-1587.94" x2="6880.19" y2="-1591.88" gradientTransform="translate(-6312.31 -1555.75) scale(1 -1)" xlink:href="#p"/>
    <linearGradient id="ae" data-name="Gradiente sem nome 5" x1="6880.19" y1="-1588.17" x2="6880.19" y2="-1591.64" gradientTransform="translate(-6312.58 -1554.58) scale(1 -1)" xlink:href="#s"/>
    <linearGradient id="af" data-name="Gradiente sem nome 2" x1="6884.49" y1="-1587.94" x2="6884.49" y2="-1591.88" gradientTransform="translate(-6320.49 -1553.84) scale(1 -1)" xlink:href="#p"/>
    <linearGradient id="ag" data-name="Gradiente sem nome 5" x1="6884.49" y1="-1588.17" x2="6884.49" y2="-1591.64" gradientTransform="translate(-6320.76 -1552.67) scale(1 -1)" xlink:href="#s"/>
    <linearGradient id="ah" data-name="Gradiente sem nome 2" x1="6888.8" y1="-1587.94" x2="6888.8" y2="-1591.88" gradientTransform="translate(-6328.54 -1552.44) scale(1 -1)" xlink:href="#p"/>
    <linearGradient id="ai" data-name="Gradiente sem nome 5" x1="6888.8" y1="-1588.17" x2="6888.8" y2="-1591.64" gradientTransform="translate(-6328.93 -1550.77) scale(1 -1)" xlink:href="#s"/>
    <linearGradient id="aj" data-name="Gradiente sem nome 2" x1="6893.11" y1="-1587.94" x2="6893.11" y2="-1591.88" gradientTransform="translate(-6336.72 -1550.53) scale(1 -1)" xlink:href="#p"/>
    <linearGradient id="ak" data-name="Gradiente sem nome 5" x1="6893.11" y1="-1588.17" x2="6893.11" y2="-1591.64" gradientTransform="translate(-6337.1 -1548.86) scale(1 -1)" xlink:href="#s"/>
    <linearGradient id="al" data-name="Gradiente sem nome 2" x1="6897.42" y1="-1587.94" x2="6897.42" y2="-1591.88" gradientTransform="translate(-6344.89 -1548.63) scale(1 -1)" xlink:href="#p"/>
    <linearGradient id="am" data-name="Gradiente sem nome 5" x1="6897.42" y1="-1588.17" x2="6897.42" y2="-1591.64" gradientTransform="translate(-6345.28 -1546.95) scale(1 -1)" xlink:href="#s"/>
    <linearGradient id="an" data-name="Gradiente sem nome 2" x1="6901.73" y1="-1587.94" x2="6901.73" y2="-1591.88" gradientTransform="translate(-6353.06 -1546.72) scale(1 -1)" xlink:href="#p"/>
    <linearGradient id="ao" data-name="Gradiente sem nome 5" x1="6901.73" y1="-1588.17" x2="6901.73" y2="-1591.64" gradientTransform="translate(-6353.45 -1545.05) scale(1 -1)" xlink:href="#s"/>
    <linearGradient id="ap" data-name="Gradiente sem nome 2" x1="6906.04" y1="-1587.94" x2="6906.04" y2="-1591.88" gradientTransform="translate(-6361.24 -1544.82) scale(1 -1)" xlink:href="#p"/>
    <linearGradient id="aq" data-name="Gradiente sem nome 5" x1="6906.04" y1="-1588.17" x2="6906.04" y2="-1591.64" gradientTransform="translate(-6361.62 -1543.14) scale(1 -1)" xlink:href="#s"/>
    <linearGradient id="ar" data-name="Gradiente sem nome 2" x1="6910.35" y1="-1587.94" x2="6910.35" y2="-1591.88" gradientTransform="translate(-6369.41 -1542.91) scale(1 -1)" xlink:href="#p"/>
    <linearGradient id="as" data-name="Gradiente sem nome 5" x1="6910.35" y1="-1588.17" x2="6910.35" y2="-1591.64" gradientTransform="translate(-6369.8 -1541.24) scale(1 -1)" xlink:href="#s"/>
    <linearGradient id="at" data-name="Gradiente sem nome 2" x1="6914.65" y1="-1587.94" x2="6914.65" y2="-1591.88" gradientTransform="translate(-6377.58 -1541.01) scale(1 -1)" xlink:href="#p"/>
    <linearGradient id="au" data-name="Gradiente sem nome 5" x1="6914.65" y1="-1588.17" x2="6914.65" y2="-1591.64" gradientTransform="translate(-6377.97 -1539.33) scale(1 -1)" xlink:href="#s"/>
    <linearGradient id="av" data-name="Gradiente sem nome 2" x1="6918.96" y1="-1587.94" x2="6918.96" y2="-1591.88" gradientTransform="translate(-6385.76 -1539.1) scale(1 -1)" xlink:href="#p"/>
    <linearGradient id="aw" data-name="Gradiente sem nome 5" x1="6918.96" y1="-1588.17" x2="6918.96" y2="-1591.64" gradientTransform="translate(-6386.14 -1537.42) scale(1 -1)" xlink:href="#s"/>
    <linearGradient id="ax" data-name="Gradiente sem nome 2" x1="6923.27" y1="-1587.94" x2="6923.27" y2="-1591.88" gradientTransform="translate(-6393.93 -1537.2) scale(1 -1)" xlink:href="#p"/>
    <linearGradient id="ay" data-name="Gradiente sem nome 5" x1="6923.27" y1="-1588.17" x2="6923.27" y2="-1591.64" gradientTransform="translate(-6394.32 -1535.52) scale(1 -1)" xlink:href="#s"/>
    <linearGradient id="az" data-name="Gradiente sem nome 2" x1="6927.58" y1="-1587.94" x2="6927.58" y2="-1591.88" gradientTransform="translate(-6402.1 -1535.29) scale(1 -1)" xlink:href="#p"/>
    <linearGradient id="ba" data-name="Gradiente sem nome 5" x1="6927.58" y1="-1588.17" x2="6927.58" y2="-1591.64" gradientTransform="translate(-6402.49 -1533.61) scale(1 -1)" xlink:href="#s"/>
    <linearGradient id="bb" data-name="Gradiente sem nome 2" x1="6931.89" y1="-1587.94" x2="6931.89" y2="-1591.88" gradientTransform="translate(-6410.39 -1532.88) scale(1 -1)" xlink:href="#p"/>
    <linearGradient id="bc" data-name="Gradiente sem nome 5" x1="6931.89" y1="-1588.17" x2="6931.89" y2="-1591.64" gradientTransform="translate(-6410.54 -1532.22) scale(1 -1)" xlink:href="#s"/>
    <linearGradient id="bd" data-name="Gradiente sem nome 2" x1="6936.2" y1="-1587.94" x2="6936.2" y2="-1591.88" gradientTransform="translate(-6418.56 -1530.98) scale(1 -1)" xlink:href="#p"/>
    <linearGradient id="be" data-name="Gradiente sem nome 5" x1="6936.2" y1="-1588.17" x2="6936.2" y2="-1591.64" gradientTransform="translate(-6418.72 -1530.32) scale(1 -1)" xlink:href="#s"/>
    <linearGradient id="bf" data-name="Gradiente sem nome 2" x1="6940.51" y1="-1587.94" x2="6940.51" y2="-1591.88" gradientTransform="translate(-6426.74 -1529.07) scale(1 -1)" xlink:href="#p"/>
    <linearGradient id="bg" data-name="Gradiente sem nome 5" x1="6940.51" y1="-1588.17" x2="6940.51" y2="-1591.64" gradientTransform="translate(-6426.89 -1528.41) scale(1 -1)" xlink:href="#s"/>
    <linearGradient id="bh" data-name="Gradiente sem nome 2" x1="6944.81" y1="-1587.94" x2="6944.81" y2="-1591.88" gradientTransform="translate(-6434.91 -1527.17) scale(1 -1)" xlink:href="#p"/>
    <linearGradient id="bi" data-name="Gradiente sem nome 5" x1="6944.81" y1="-1588.17" x2="6944.81" y2="-1591.64" gradientTransform="translate(-6435.06 -1526.51) scale(1 -1)" xlink:href="#s"/>
    <linearGradient id="bj" data-name="Gradiente sem nome 2" x1="6949.12" y1="-1587.94" x2="6949.12" y2="-1591.88" gradientTransform="translate(-6443.08 -1525.26) scale(1 -1)" xlink:href="#p"/>
    <linearGradient id="bk" data-name="Gradiente sem nome 5" x1="6949.12" y1="-1588.17" x2="6949.12" y2="-1591.64" gradientTransform="translate(-6443.24 -1524.6) scale(1 -1)" xlink:href="#s"/>
    <linearGradient id="bl" data-name="Gradiente sem nome 2" x1="6953.43" y1="-1587.94" x2="6953.43" y2="-1591.88" gradientTransform="translate(-6451.26 -1523.36) scale(1 -1)" xlink:href="#p"/>
    <linearGradient id="bm" data-name="Gradiente sem nome 5" x1="6953.43" y1="-1588.17" x2="6953.43" y2="-1591.64" gradientTransform="translate(-6451.41 -1522.69) scale(1 -1)" xlink:href="#s"/>
    <linearGradient id="bn" data-name="Gradiente sem nome 2" x1="6957.74" y1="-1587.94" x2="6957.74" y2="-1591.88" gradientTransform="translate(-6459.43 -1521.45) scale(1 -1)" xlink:href="#p"/>
    <linearGradient id="bo" data-name="Gradiente sem nome 5" x1="6957.74" y1="-1588.17" x2="6957.74" y2="-1591.64" gradientTransform="translate(-6459.58 -1520.79) scale(1 -1)" xlink:href="#s"/>
    <linearGradient id="bp" data-name="Gradiente sem nome 2" x1="6962.05" y1="-1587.94" x2="6962.05" y2="-1591.88" gradientTransform="translate(-6467.6 -1519.55) scale(1 -1)" xlink:href="#p"/>
    <linearGradient id="bq" data-name="Gradiente sem nome 5" x1="6962.05" y1="-1588.17" x2="6962.05" y2="-1591.64" gradientTransform="translate(-6467.75 -1518.88) scale(1 -1)" xlink:href="#s"/>
    <linearGradient id="br" data-name="Gradiente sem nome 2" x1="6966.36" y1="-1587.94" x2="6966.36" y2="-1591.88" gradientTransform="translate(-6475.78 -1517.64) scale(1 -1)" xlink:href="#p"/>
    <linearGradient id="bs" data-name="Gradiente sem nome 5" x1="6966.36" y1="-1588.17" x2="6966.36" y2="-1591.64" gradientTransform="translate(-6475.93 -1516.98) scale(1 -1)" xlink:href="#s"/>
    <linearGradient id="bt" data-name="Gradiente sem nome 4" x1="8538.09" y1="-389.82" x2="8675.81" y2="-319.35" xlink:href="#o"/>
    <linearGradient id="bu" data-name="Gradiente sem nome 2" x1="8553.05" y1="-387.57" x2="8665.94" y2="-329.79" xlink:href="#p"/>
    <linearGradient id="bv" data-name="Gradiente sem nome 3" x1="8695.31" y1="-357.9" x2="8681.65" y2="-388.11" gradientTransform="translate(9126.24 -396.9) rotate(174.47) scale(1 -1)" xlink:href="#h"/>
    <linearGradient id="bw" data-name="Gradiente sem nome 2" x1="8689.1" y1="-371.63" x2="8682.37" y2="-386.5" xlink:href="#p"/>
    <linearGradient id="bx" data-name="Gradiente sem nome 3" x1="8672.57" y1="-349.97" x2="8713.1" y2="-349.97" gradientTransform="translate(9126.24 -396.9) rotate(174.47) scale(1 -1)" xlink:href="#h"/>
    <linearGradient id="by" data-name="Gradiente sem nome 2" x1="8702.47" y1="-332.68" x2="8686.29" y2="-368.45" xlink:href="#p"/>
  </defs>
  <g class="dg">
    <g id="b" data-name="Capa 2">
      <g id="c" data-name="Capa 1">
        <g>
          <g>
            <ellipse class="cy" cx="319.66" cy="509.55" rx="319.64" ry="8.37"/>
            <path class="fe" d="M275.43,276.06s.02,0,.03-.01c.41-.21,.6-.69,.45-1.13-.27-.78-.57-1.5-.9-2.19-.01-.12-.03-.23-.05-.35,.04-.13,.05-.27,.02-.41-.02-.09-.08-.35-.18-.73-.85-6.33-1.85-12.43-3-18.27,.12-.22,.16-.49,.07-.74-.15-.43-.31-.85-.47-1.25-1.75-8.61-3.79-16.69-6.03-24.23,0,0,0-.01,0-.02,0-.01,0-.02-.01-.03-2.7-9.08-5.67-17.37-8.76-24.89,0-.08,0-.16-.04-.24-.5-1.46-1.09-2.8-1.76-4.03-2.27-5.25-4.58-10.11-6.86-14.55-1.06-2.06-2.12-4.04-3.19-5.98-1.2-3.48-2.89-6.26-4.93-8.48-.86-1.41-1.72-2.8-2.57-4.13,0,0,0-.01,0-.02-.07-.13-.81-1.59-2.48-3.77-3.34-4.97-6.58-9.36-9.59-13.16,0-.02,0-.04-.02-.05-.18-.3-18.05-30.48-43.48-43.98-.38-.21-.86-.12-1.14,.21-.29,.33-.31,.81-.06,1.16,.11,.16,11.49,15.88,43.09,43.63,1.09,1.37,2.2,2.81,3.34,4.33-1.17-.93-2.45-1.87-3.87-2.81-9.51-6.29-26.69-13.4-54.57-11.51-.49,.03-.87,.43-.87,.92,0,.49,.36,.9,.84,.95,.49,.05,48.53,5.36,66.38,24.17-8.23-4.88-19.36-4.84-28.96-4.8-1.33,0-2.63,.01-3.89,0-7.63-.05-24.55-2.23-33.96-10.14-.36-.3-.89-.29-1.24,.03-.35,.32-.41,.84-.14,1.23,.3,.43,6.18,8.64,19.32,12.8,3.38,1.07,7.24,1.88,11.62,2.21l4.65,.35c18.99,1.39,34,2.5,40.89,11.76,1.08,1.96,2.16,3.98,3.24,6.06,.84,1.64,1.69,3.35,2.53,5.09-2.17-2.27-5.08-4.86-8.91-7.4-9.51-6.29-26.69-13.4-54.57-11.51-.49,.03-.87,.43-.87,.92,0,.48,.36,.9,.84,.95,.38,.04,28.72,3.17,49.96,13.1-5.82-.98-12.01-.96-17.67-.94-1.33,0-2.63,.01-3.89,0-7.63-.04-24.55-2.23-33.96-10.14-.36-.3-.89-.29-1.24,.03-.35,.32-.41,.84-.14,1.23,.3,.43,6.18,8.64,19.32,12.8,.41,.13,.85,.24,1.27,.36-4.66-.19-9.61-.22-14.96,0-.48,.02-.87,.4-.9,.89-.03,.48,.33,.9,.8,.98,.53,.08,43.13,6.63,66.13,21.42-7.36-2.46-15.98-2.43-23.62-2.4-1.33,0-2.63,.01-3.89,0-7.63-.05-24.55-2.23-33.96-10.14-.36-.3-.89-.29-1.24,.03-.35,.32-.41,.84-.14,1.23,.3,.43,6.18,8.64,19.32,12.8,3.38,1.07,7.24,1.88,11.62,2.21l4.65,.35c18.94,1.39,33.92,2.5,40.84,11.69,1.21,4.08,2.36,8.33,3.43,12.74-1.86-2.88-4.58-6.2-8.55-9.48-9.53-7.88-28.42-16.95-64.25-15.47-.48,.02-.87,.4-.9,.89-.03,.48,.33,.9,.8,.98,.52,.08,43.71,6.72,65.07,21.77-7.1-2.83-15.74-2.8-23.33-2.77-1.22,0-2.42,.01-3.58,0-7.03-.04-22.61-2.05-31.27-9.33-.36-.3-.89-.29-1.24,.03-.35,.32-.41,.84-.14,1.23,.28,.4,5.71,7.99,17.85,11.83,3.12,.99,6.69,1.73,10.73,2.04l4.29,.32c17.17,1.26,30.78,2.28,37.28,10.36,.79,3.99,1.52,8.1,2.17,12.32-5.72-9.53-21.9-25.06-66.38-23.22-.48,.02-.87,.4-.9,.89-.03,.48,.33,.9,.8,.98,.48,.07,40.43,6.21,59.47,20.13-5.8-2.19-12.76-2.18-18.9-2.15-1.01,0-2,0-2.96,0-6.71-.04-19.09-2.11-25.68-7.66-.36-.3-.89-.29-1.24,.03-.35,.32-.41,.84-.14,1.23,.23,.33,4.74,6.63,14.81,9.82,2.59,.82,5.54,1.43,8.88,1.69l3.54,.26c13.64,1,24.56,1.81,30.08,7.83,2.92,23.78,3.5,50.94,.19,81.52l1.86,.2c3.25-30.07,2.76-56.85-.02-80.39Zm-24.08-71.43c-5.94-4.91-15.4-10.24-29.95-13.45,15.35,1.26,27.34,3.15,33.37,11.02,1.31,3.18,2.59,6.5,3.85,9.96-1.81-2.4-4.17-4.97-7.26-7.53Z"/>
            <g>
              <path class="ef" d="M191.45,434.43s-27.05,12.79-55.16-7.27c-21.62-15.43-45.17,5.43-66.46-18.34-23.48-26.22,1.01-56.14-32.25-70.5C-4.59,320.11-2.69,303.77,3.03,265.39c37.53-9.84,53.57-13.49,76.23,26.46,17.87,31.51,44.97,3.94,73.58,24.44,25.94,18.59,7.74,44.26,25.42,64.08,22.98,25.77,13.19,54.05,13.19,54.05Z"/>
              <line class="cp" x1="211.45" y1="452.38" x2="24.18" y2="284.37"/>
              <g>
                <path class="cp" d="M82.97,388.63s29.63-24.94,59.77,2.11"/>
                <path class="cp" d="M24.22,310.17s16.82-10.67,39.73,9.89"/>
                <path class="cp" d="M134.18,331.54s-21.59,32.15,8.56,59.2"/>
                <path class="cp" d="M49.83,281.62s-8.78,17.88,14.13,38.43"/>
              </g>
            </g>
            <g>
              <path class="du" d="M226.72,268.17s-21.68,3.27-37.17-16.72c-11.92-15.38-32.84-5.71-42.76-26.87-10.95-23.35,12.54-39.18-7.77-56.26-25.75-21.66-20.97-32.73-8.87-58.44,28.41,1.01,40.43,1.83,47.91,34.63,5.9,25.88,30.72,12.24,46.47,32.66,14.28,18.51-3.89,32.68,4.33,50.32,10.69,22.93-2.14,40.7-2.14,40.7Z"/>
              <line class="cq" x1="236.98" y1="284.98" x2="140.99" y2="127.63"/>
              <g>
                <path class="cq" d="M160.26,213.17s26.04-11.25,41.49,14.08"/>
                <path class="cq" d="M135.58,145.74s14.05-3.94,25.79,15.31"/>
                <path class="cq" d="M208.23,183.91s-21.92,18.01-6.47,43.34"/>
                <path class="cq" d="M159.56,131.11s-9.93,10.69,1.81,29.94"/>
              </g>
            </g>
            <g>
              <path class="dk" d="M414.69,260.61s15.77,6.2,30.9-6.2c11.63-9.54,25.74,1.35,36.86-12.89,12.27-15.71-2.7-31.69,15.55-41.07,23.14-11.89,21.44-21.06,16.75-42.53-21.58-4.13-30.79-5.59-42.08,17.85-8.9,18.49-25.26,3.93-40.65,16.61-13.95,11.49-2.69,25.31-11.93,37.18-12.01,15.44-5.4,31.05-5.4,31.05Z"/>
              <line class="cq" x1="404.07" y1="271.52" x2="503.52" y2="169.44"/>
              <g>
                <path class="cq" d="M474.26,230.6s-17.69-12.97-33.7,3.46"/>
                <path class="cq" d="M504.48,184.02s-9.91-5.39-22.08,7.1"/>
                <path class="cq" d="M443.14,200.28s13.42,17.35-2.59,33.78"/>
                <path class="cq" d="M488.92,168.87s5.64,9.77-6.52,22.26"/>
              </g>
            </g>
            <path class="fb" d="M222.26,330.84s.03-.02,.04-.03c.48-.48,.54-1.25,.13-1.8-.72-.98-1.47-1.86-2.24-2.69-.07-.16-.15-.31-.22-.47,0-.2-.05-.41-.15-.59-.07-.13-.26-.47-.57-.95-4.02-8.54-8.15-16.67-12.37-24.39,.07-.37,.01-.76-.23-1.08-.4-.54-.81-1.05-1.22-1.56-6.31-11.35-12.79-21.81-19.3-31.43,0,0,0-.02-.01-.02,0-.01-.02-.02-.03-.04-7.84-11.58-15.73-21.92-23.43-31.14-.04-.11-.09-.22-.16-.32-1.36-1.84-2.79-3.45-4.27-4.89-5.54-6.39-10.95-12.19-16.15-17.42-2.41-2.42-4.8-4.75-7.17-7-3.24-4.36-6.85-7.52-10.72-9.75-1.84-1.6-3.67-3.17-5.47-4.67,0,0,0-.02-.02-.03-.15-.16-1.85-1.88-5.18-4.2-6.91-5.52-13.44-10.25-19.37-14.26-.02-.02-.03-.05-.05-.06-.39-.35-39-34.87-80.84-42.53-.63-.12-1.26,.22-1.52,.81-.26,.59-.08,1.28,.44,1.66,.23,.17,23.26,17.24,80.12,42.22,2.14,1.44,4.35,2.97,6.64,4.61-2.07-.79-4.29-1.55-6.7-2.23-16.19-4.62-43.55-6.97-81.97,8.12-.67,.26-1.03,.99-.82,1.68,.2,.69,.9,1.1,1.6,.96,.72-.15,70.73-14.09,104.24,4.42-13.77-3.2-29.42,1.82-42.92,6.15-1.87,.6-3.7,1.19-5.48,1.74-10.77,3.34-35.56,7.81-52.35,.87-.64-.26-1.38-.02-1.73,.59-.35,.6-.19,1.37,.36,1.79,.62,.48,12.55,9.41,32.91,9.41,5.24,0,11.04-.59,17.34-2.07l6.7-1.58c27.36-6.51,48.98-11.64,62.82-1.69,2.4,2.28,4.82,4.64,7.26,7.1,1.91,1.93,3.87,3.96,5.83,6.04-4.06-2.24-9.32-4.58-15.85-6.44-16.19-4.62-43.55-6.96-81.97,8.12-.67,.26-1.03,.99-.82,1.68,.2,.69,.91,1.1,1.6,.97,.55-.11,41.85-8.35,76.19-3.84-8.63,1.21-17.34,4-25.3,6.56-1.87,.6-3.7,1.19-5.48,1.74-10.77,3.34-35.57,7.81-52.35,.86-.64-.26-1.38-.02-1.73,.59-.35,.6-.19,1.37,.36,1.79,.62,.48,12.55,9.41,32.91,9.41,.63,0,1.3-.04,1.95-.06-6.64,1.8-13.63,3.98-21.07,6.68-.67,.24-1.05,.96-.87,1.65,.18,.69,.87,1.12,1.56,1.02,.78-.13,63.69-9.9,102.66,.67-11.45-.18-23.58,3.7-34.34,7.15-1.87,.6-3.69,1.19-5.47,1.74-10.77,3.34-35.57,7.81-52.35,.87-.64-.26-1.38-.02-1.73,.59-.35,.6-.19,1.37,.36,1.79,.62,.48,12.55,9.41,32.91,9.41,5.24,0,11.04-.59,17.34-2.07l6.7-1.58c27.3-6.49,48.87-11.61,62.72-1.75,3.52,5.21,7.03,10.68,10.51,16.4-3.9-3.23-9.21-6.68-16.26-9.53-16.94-6.84-47.58-11.19-97.37,6.87-.67,.24-1.05,.96-.87,1.65,.18,.69,.87,1.12,1.56,1.02,.77-.13,64.55-10.03,101.33,1.63-11.26-.82-23.41,3.08-34.09,6.51-1.72,.55-3.4,1.09-5.05,1.6-9.91,3.07-32.75,7.19-48.19,.8-.64-.26-1.38-.02-1.73,.59-.35,.6-.19,1.37,.36,1.79,.57,.44,11.6,8.7,30.41,8.7,4.84,0,10.19-.55,16.01-1.91l6.18-1.46c24.73-5.88,44.35-10.52,57.11-2.03,2.89,5.26,5.75,10.73,8.55,16.37-12.3-10.87-42.01-25.52-103.82-3.09-.67,.24-1.05,.96-.87,1.65,.18,.69,.86,1.13,1.56,1.02,.71-.11,59.69-9.28,92.71,1.83-9.15-.49-18.94,2.63-27.58,5.4-1.42,.46-2.81,.9-4.16,1.32-9.47,2.94-27.82,5.53-39.58,.67-.65-.26-1.38-.02-1.73,.59-.35,.6-.19,1.37,.36,1.79,.48,.37,9.63,7.22,25.24,7.22,4.01,0,8.44-.45,13.25-1.58l5.1-1.21c19.66-4.67,35.4-8.4,45.84-2.38,14.72,32.17,27.65,70.16,36.63,114.69l2.71-.55c-8.83-43.79-21.47-81.27-35.88-113.18Zm-65.76-89.84c-10.56-4.26-26.25-7.56-48.17-5.58,22.18-5.07,39.91-7.75,51.9,.64,3.26,3.89,6.55,7.99,9.86,12.3-3.62-2.57-8.08-5.15-13.59-7.37Z"/>
            <g>
              <path class="dm" d="M447.85,434.43s27.05,12.79,55.16-7.27c21.62-15.43,45.17,5.43,66.46-18.34,23.48-26.22-1.01-56.14,32.25-70.5,42.16-18.2,40.27-34.55,34.54-72.92-37.53-9.84-53.57-13.49-76.23,26.46-17.87,31.51-44.97,3.94-73.58,24.44-25.94,18.59-7.74,44.26-25.42,64.08-22.98,25.77-13.19,54.05-13.19,54.05Z"/>
              <line class="cp" x1="427.84" y1="452.38" x2="615.11" y2="284.37"/>
              <g>
                <path class="cp" d="M556.33,388.63s-29.63-24.94-59.77,2.11"/>
                <path class="cp" d="M615.07,310.17s-16.82-10.67-39.73,9.89"/>
                <path class="cp" d="M505.11,331.54s21.59,32.15-8.56,59.2"/>
                <path class="cp" d="M589.46,281.62s8.78,17.88-14.13,38.43"/>
              </g>
            </g>
            <path class="fb" d="M335.96,441.1l2.63,.86c14.16-43.17,31.46-79.37,49.87-109.59,11.08-4.75,26.27,.81,45.24,7.76l4.92,1.8c4.65,1.69,9,2.66,12.98,3.13,15.49,1.84,25.39-3.9,25.91-4.21,.6-.35,.84-1.1,.56-1.74-.27-.64-.98-.97-1.65-.79-12.25,3.45-30.17-1.29-39.22-5.32-1.3-.58-2.62-1.18-3.98-1.8-8.25-3.77-17.61-8.02-26.75-8.61,34.1-7.14,91.59,8.9,92.28,9.09,.68,.19,1.41-.17,1.67-.83,.26-.66-.03-1.42-.67-1.74-58.74-29.54-89.97-18.49-103.47-9.14,3.45-5.28,6.93-10.37,10.42-15.25,13.66-6.93,32.6-.01,56.47,8.74l5.96,2.18c5.62,2.04,10.87,3.22,15.68,3.78,18.68,2.21,30.6-4.69,31.22-5.06,.6-.35,.84-1.1,.56-1.74-.27-.64-.98-.97-1.65-.79-16.08,4.53-38.28-2.25-47.76-6.46-1.57-.7-3.18-1.43-4.82-2.19-10.2-4.66-21.8-9.96-33.09-10.47,37.9-7.25,100.06,10.08,100.82,10.3,.68,.18,1.41-.17,1.67-.83,.26-.66-.03-1.42-.67-1.74-47.32-23.8-78.26-23.08-95.89-18.28-7.34,2-13.02,4.81-17.27,7.55,4.13-5.27,8.26-10.29,12.37-15.05,14.91-8.15,35.74-.53,62.08,9.12l6.46,2.36c6.09,2.21,11.78,3.48,16.98,4.1,20.22,2.4,33.12-5.07,33.79-5.47,.6-.35,.84-1.1,.56-1.74-.28-.64-.98-.97-1.65-.79-17.48,4.92-41.58-2.43-51.88-7.02-1.7-.76-3.45-1.55-5.23-2.37-10.28-4.69-21.86-9.98-33.25-11.14,39.95-5.91,101.26,11.2,102.03,11.42,.67,.18,1.41-.17,1.67-.83,.26-.66-.03-1.42-.67-1.74-7.07-3.56-13.75-6.54-20.14-9.11,.64,.09,1.3,.21,1.93,.29,20.22,2.4,33.12-5.07,33.79-5.47,.6-.35,.84-1.1,.56-1.74-.27-.64-.98-.97-1.65-.79-17.48,4.92-41.58-2.43-51.88-7.02-1.7-.76-3.45-1.56-5.24-2.37-7.6-3.48-15.93-7.27-24.36-9.49,34.63-.44,74.68,12.6,75.21,12.78,.68,.22,1.42-.11,1.71-.77,.28-.66,.01-1.43-.62-1.77-36.38-19.5-63.83-20.39-80.45-17.71-6.7,1.08-12.2,2.79-16.49,4.53,2.2-1.84,4.38-3.62,6.5-5.31,2.71-2.15,5.39-4.21,8.05-6.19,14.91-8.26,35.78-.62,62.19,9.06l6.47,2.36c6.09,2.21,11.78,3.48,16.98,4.1,20.22,2.4,33.12-5.07,33.79-5.47,.6-.35,.84-1.1,.56-1.74-.27-.64-.98-.97-1.65-.79-17.49,4.92-41.58-2.43-51.88-7.02-1.71-.76-3.45-1.56-5.24-2.37-12.89-5.89-27.85-12.72-41.9-11.16,35.45-14.45,103.34,7.64,104.03,7.87,.68,.22,1.42-.11,1.71-.77,.28-.66,.02-1.43-.62-1.77-36.38-19.51-63.83-20.4-80.45-17.71-2.47,.4-4.77,.89-6.91,1.43,2.46-1.35,4.84-2.61,7.14-3.79,59.41-18.11,84.29-32.36,84.53-32.5,.56-.32,.82-.98,.63-1.6-.19-.61-.77-1.03-1.41-.98-42.45,2.69-84.86,32.42-85.28,32.72-.02,.02-.04,.04-.06,.06-6.37,3.28-13.4,7.22-20.92,11.88-3.58,1.91-5.46,3.42-5.64,3.56,0,0-.01,.02-.02,.02-1.96,1.28-3.96,2.62-5.98,3.99-4.1,1.76-8.06,4.46-11.79,8.42-2.62,1.96-5.26,3.98-7.94,6.11-5.77,4.58-11.83,9.71-18.09,15.4-1.64,1.25-3.25,2.68-4.81,4.35-.09,.09-.14,.2-.2,.3-8.73,8.25-17.78,17.59-26.93,28.17-.01,.01-.02,.02-.03,.03,0,0,0,.02-.01,.02-7.6,8.78-15.26,18.41-22.86,28.94-.47,.45-.94,.91-1.4,1.4-.27,.29-.38,.67-.35,1.05-5.1,7.17-10.16,14.76-15.16,22.76-.36,.44-.6,.76-.68,.87-.12,.17-.19,.37-.22,.57-.09,.15-.18,.29-.27,.44-.86,.73-1.71,1.52-2.54,2.4-.47,.5-.5,1.26-.08,1.8,.01,.01,.03,.02,.04,.03-18.06,29.99-35.02,65.72-48.94,108.17Zm110.46-183.94c3.8-3.89,7.55-7.58,11.24-11.06,12.89-6.93,30.18-2.17,51.61,5.47-21.54-4.55-37.51-3.12-48.49-.13-5.73,1.56-10.46,3.59-14.36,5.72Z"/>
            <g>
              <g>
                <path class="co" d="M473.92,393.35s15.18-21.13,15.18-110.21c0-61.37-7.21-90.49-11.69-102.66-1.7-4.61-6.26-7.9-11.71-8.42-17.4-1.65-62.97-5.09-141.9-5.12-84.26-.03-132.63,3.49-150.73,5.15-5.48,.5-10.07,3.79-11.78,8.42-4.48,12.2-11.68,41.32-11.68,102.63,0,89.08,15.18,110.21,15.18,110.21H473.92Z"/>
                <path class="cw" d="M177.48,383.11c-3.01,0-5.68-1.8-6.48-4.39-3.66-11.75-9.8-39.78-9.8-95.58,0-60.27,6.96-88.2,11.11-99.48,.28-.77,1.02-1.3,1.93-1.38,16.7-1.53,64.6-5.1,148.36-5.1h1.19c79.31,.03,124.81,3.55,140.69,5.06,.89,.08,1.62,.61,1.9,1.38,4.16,11.28,11.13,39.2,11.13,99.51,0,55.8-6.14,83.83-9.8,95.58-.81,2.58-3.47,4.39-6.48,4.39H177.48Z"/>
              </g>
              <g>
                <polygon class="eq" points="164.8 393.35 107.36 406 531.36 406 473.92 393.35 164.8 393.35"/>
                <g>
                  <polyline class="dv" points="164.8 393.35 107.36 406.2 107.36 398.68 164.8 385.83"/>
                  <polyline class="dv" points="473.92 393.35 531.36 406.2 531.36 398.68 473.92 385.83"/>
                  <rect class="dv" x="164.8" y="385.83" width="309.12" height="7.53"/>
                </g>
              </g>
              <g>
                <circle class="ca" cx="319.65" cy="264.29" r="147.2"/>
                <g>
                  <path class="dv" d="M271.24,403.43v-2.29l3.52-1.19c1.03-.35,1.72-1.32,1.72-2.4v-1.12c0-1.4,1.14-2.54,2.54-2.54h1.46c.61,0,1.2-.22,1.66-.62l7.35-6.34c.56-.48,.88-1.18,.88-1.92v-3.27c0-.89,.46-1.71,1.22-2.17l8.6-5.21c.23-.14,.44-.32,.62-.53l5.3-6.26c.39-.46,.6-1.04,.6-1.64v-8.62c0-.67,.27-1.32,.74-1.79l5.3-5.3c.48-.48,.74-1.12,.74-1.79v-5.87c0-.7-.29-1.37-.8-1.85l-5.25-4.92c-.47-.44-1.09-.68-1.73-.68h-5.03c-.68,0-1.34-.28-1.81-.76l-4.68-4.78c-.48-.49-1.13-.76-1.81-.76h-3.18c-1.4,0-2.54-1.14-2.54-2.54v-1.71c0-.44-.12-.88-.34-1.27l-4.79-8.32c-.45-.79-1.29-1.27-2.2-1.27h-6.27c-.93,0-1.79-.51-2.23-1.33l-2.88-5.35c-.44-.82-1.3-1.33-2.23-1.33h-7.34c-.26,0-.53-.04-.78-.12l-8.44-2.73c-.84-.27-1.77-.08-2.44,.49l-7.61,6.57c-.73,.63-1.75,.79-2.64,.42l-4.93-2.06c-.65-.27-1.16-.8-1.41-1.46l-3.54-9.61c-.25-.68-.78-1.22-1.46-1.49l-3.74-1.46c-1.28-.5-1.93-1.92-1.47-3.21l1.88-5.27c.33-.92,.1-1.95-.6-2.65l-.23-.23c-1.02-1.02-2.69-.99-3.67,.08l-4.24,4.63c-.48,.52-1.16,.82-1.87,.82h-1.37c-1.09,0-2.06-.7-2.41-1.74l-2.27-6.81c-.15-.46-.17-.96-.05-1.43l2.1-8.17c.29-1.12,1.3-1.91,2.46-1.91h8.76c.45,0,.89-.12,1.27-.34l5.1-2.96c1.01-.58,2.28-.41,3.09,.42l3.01,3.09c2.34,2.4,6.41,.75,6.41-2.6v-4.99c0-.78,.36-1.53,.98-2.01l4.82-3.73c.62-.48,.98-1.22,.98-2.01v-2.66c0-.84,.41-1.62,1.11-2.1l11.36-7.74c.69-.47,1.11-1.26,1.11-2.1v-3.64c0-.93,.5-1.78,1.32-2.22l11.62-6.38c1.43-.79,1.76-2.7,.67-3.92l-2.47-2.76c-.42-.47-.65-1.07-.65-1.69v-1.12c0-1.4,1.14-2.54,2.54-2.54h4.48c.65,0,1.27-.25,1.74-.69l7.85-7.39c1.04-.98,1.07-2.63,.06-3.64l-3.79-3.79c-.34-.34-.58-.78-.69-1.26l-2.49-11.46c-.25-1.17-1.29-2-2.48-2h-1.28c-1.4,0-2.54,1.14-2.54,2.54v2.4l-7.27-7.55c-.48-.5-1.14-.78-1.83-.78h-5.95c-1.4,0-2.54,1.14-2.54,2.54v11.5c0,.69-.28,1.36-.78,1.83l-5.49,5.25c-.52,.5-.81,1.2-.78,1.92l.17,4.71c.05,1.5-1.19,2.71-2.69,2.62h0c-1.37-.08-2.43-1.24-2.39-2.61l.18-6.21c.03-1.09-.63-2.07-1.65-2.45l-10.07-3.75c-.91-.34-1.55-1.17-1.64-2.14l-.33-3.45c-.08-.89,.31-1.77,1.03-2.29l5.2-3.78c.27-.2,.5-.45,.68-.74l6.45-10.66c.25-.41,.61-.74,1.04-.96l9.26-4.63c.74-.37,1.26-1.09,1.38-1.91l1.1-7.73c.15-1.05,.94-1.9,1.98-2.12l1.06-.23c.94-.2,1.91,.15,2.51,.9l4.25,5.31c.58,.73,.72,1.72,.36,2.57l-2.31,5.46c-.31,.73-.95,1.28-1.72,1.47l-.72,.18c-1.55,.39-2.36,2.09-1.68,3.54l.27,.58c.36,.78,1.1,1.32,1.96,1.44l4.59,.63c.53,.07,1.08-.03,1.55-.28l5.72-3.1c.61-.33,1.05-.89,1.24-1.56l2-7.24c.12-.44,.12-.9,0-1.33l-2.96-11.04c-.16-.6-.54-1.12-1.06-1.46l-9.12-6c-.56-.37-1.24-.5-1.89-.37l-12.5,2.5c-1.12,.22-1.96,1.17-2.03,2.31l-.3,4.3c-.1,1.47,1.06,2.71,2.53,2.71h2.22l-2.8,4.83c-.38,.65-1.01,1.1-1.75,1.23-4.35,.73-20.39,3.43-38.21,6.48-.61,.1-1.16,.42-1.56,.89-20.03,24.13-32.49,54.76-33.77,88.26-.02,.57,.15,1.13,.48,1.6l21.74,30.64c.41,.57,1.03,.95,1.73,1.05l9.77,1.32c.36,.05,.71,.18,1.03,.38l13.07,8.34c.42,.27,.75,.66,.96,1.11l2.34,5.31c.28,.62,.79,1.11,1.43,1.35l9.69,3.64c.99,.37,1.65,1.32,1.65,2.38v5.3c0,.88-.46,1.7-1.21,2.16l-4.37,2.69c-.75,.46-1.21,1.28-1.21,2.16v8.45c0,.9,.48,1.74,1.26,2.2l3.05,1.77c.4,.23,.74,.58,.96,.99l5.01,9.27c.13,.25,.31,.47,.51,.66l12.14,11.21c.52,.48,.82,1.16,.82,1.86v29.79c0,.97,.55,1.87,1.42,2.3,5.32,2.61,10.82,4.91,16.47,6.88Z"/>
                  <path class="dv" d="M459.52,300.04c1.29,.75,2.96,.06,3.3-1.39,2.63-11.01,4.03-22.5,4.03-34.32,0-45.96-21.06-86.99-54.04-113.99-.98-.8-2.43-.61-3.19,.39l-21.75,28.63c-.46,.61-.58,1.41-.31,2.12l1.69,4.53c.47,1.27,1.95,1.82,3.14,1.18l1.36-.73c.9-.49,2.01-.3,2.7,.46l4.65,5.09c.42,.46,1.02,.72,1.64,.72h2.35c1.23,0,2.22-1,2.22-2.22v-3.76c0-.52,.18-1.02,.51-1.42l2.85-3.44c.71-.86,.68-2.11-.08-2.93l-1.54-1.67c-.67-.72-.78-1.8-.28-2.65l6.64-11.19c.69-1.16,2.24-1.45,3.29-.61l.44,.35c1.25,.99,1.08,2.93-.31,3.7l-.97,.53c-.71,.39-1.16,1.14-1.16,1.95v7.26c0,1.53,1.52,2.61,2.96,2.1l3.49-1.23c.86-.3,1.81-.05,2.41,.63l.1,.11c1.26,1.44,.24,3.69-1.67,3.69h0c-1.23,0-2.22,1-2.22,2.22v3.26c0,1.23-1,2.22-2.22,2.22h-2.78c-1.23,0-2.22,1-2.22,2.22v4.19c0,1.23-1,2.22-2.22,2.22h-16.46c-.39,0-.77,.1-1.11,.3l-20.89,12.02c-.69,.4-1.12,1.13-1.12,1.93v1.88c0,.35,.08,.7,.25,1.02l3.95,7.7c.76,1.48-.31,3.24-1.98,3.24h-5.86c-1.23,0-2.22,1-2.22,2.22v3.2c0,.29-.06,.58-.17,.85l-1.82,4.43c-.11,.27-.17,.56-.17,.85v4.72c0,1.23,1,2.22,2.22,2.22h8.16c.47,0,.92-.15,1.3-.42l3.36-2.42c.25-.18,.46-.4,.61-.67l6.18-10.35c.24-.41,.61-.73,1.05-.91l7.26-3.04c.95-.4,2.06-.09,2.66,.75l8.69,12.02c.8,1.11,2.41,1.24,3.38,.27l.96-.96c.78-.78,.87-2.01,.22-2.89l-8.41-11.42h2.86c.72,0,1.39,.35,1.81,.93l13.47,18.89c.7,.99,2.06,1.23,3.06,.55l2.32-1.58c.99-.67,1.27-2.01,.63-3.03l-.4-.63c-.94-1.48,.13-3.41,1.88-3.41h.22c1.23,0,2.22,1,2.22,2.22v6.04c0,1.23,1,2.22,2.22,2.22h9.13c1.23,0,2.22,1,2.22,2.22v4.19c0,1.23-1,2.22-2.22,2.22h-20.59c-1.23,0-2.22,1-2.22,2.22v.97c0,1.23-.99,2.21-2.22,2.22-1.22,.01-2.69,.08-3.69,.13-.73,.04-1.43-.29-1.87-.87l-2.07-2.7c-.19-.24-.42-.45-.69-.6l-5.84-3.22c-.71-.39-1.15-1.14-1.15-1.95v-4.81c0-1.23-1-2.22-2.22-2.22h-14.46c-.39,0-.77,.1-1.11,.3l-5.45,3.13c-.34,.19-.72,.3-1.11,.3h-4.91c-.43,0-.86,.13-1.22,.36l-7.39,4.84c-.63,.41-1.01,1.11-1.01,1.86v5.28c0,.51-.18,1.01-.5,1.4l-11.65,14.33c-.32,.4-.5,.89-.5,1.4v13.71c0,.64-1.63,3.35-2.63,4.96-.46,.75-.44,1.69,.06,2.42l13.47,19.79c.5,.74,1.39,1.1,2.26,.93l19.81-3.85c.61-.12,1.25,.02,1.75,.4l7.26,5.37c.57,.42,.9,1.08,.9,1.79v8.99c0,.36,.09,.71,.25,1.02l6.15,11.9c.25,.48,.31,1.04,.18,1.57l-4.93,19.38c-.07,.27-.09,.55-.05,.82l2.33,18.72c.2,1.63,2.05,2.51,3.43,1.61,27.61-18.07,48.77-45.17,59.31-77.1,.26-.8,.05-1.69-.55-2.29l-1.28-1.28c-.23-.23-.41-.51-.52-.82l-10.86-30.1c-.75-2.08,1.67-3.87,3.44-2.53l1.27,.96c.55,.42,.88,1.08,.88,1.77v6.27c0,.32,.07,.63,.2,.92l3.19,7c.13,.29,.2,.6,.2,.92v5.03c0,.79,.42,1.52,1.1,1.92l3,1.76Zm-9.06-64.64l-7.56-2.95c-.82-.32-1.76-.12-2.38,.5l-1.87,1.87c-.42,.42-.98,.65-1.57,.65h-2.68c-.62,0-1.22-.26-1.64-.72l-.68-.74c-.63-.68-.77-1.68-.35-2.5l4.58-9.16c.38-.75,1.15-1.23,1.99-1.23h4.14c.23,0,.45-.03,.67-.1l3.62-1.14c1.43-.45,2.89,.62,2.89,2.12v3.11c0,.61,.25,1.19,.69,1.61l3.81,3.65c.89,.85,.92,2.27,.06,3.16l-1.31,1.35c-.62,.64-1.57,.85-2.4,.52Z"/>
                  <polygon class="dv" points="375.77 206.63 382.26 202.87 376.48 195.56 376.48 188.46 370.89 183.99 369.07 185.82 369.07 189.68 374.55 196.58 373.84 199.93 368.56 193.43 362.97 203.28 365.31 204.6 369.27 198.1 371.91 201.76 371.91 206.63 375.77 206.63"/>
                  <path class="dv" d="M334.93,152.02h.87c.72,0,1.4-.27,1.93-.76h0c1.27-1.19,1.17-3.23-.21-4.29l-.27-.21c-.69-.53-1.1-1.36-1.1-2.23v-1.69h4.72c.81,0,1.58-.35,2.12-.96l.61-.7c.45-.51,.7-1.17,.7-1.85v-17.74c0-1.39-1.01-2.59-2.39-2.8-7.27-1.11-14.72-1.69-22.3-1.69-15.76,0-30.94,2.48-45.17,7.06-1.17,.38-1.95,1.47-1.95,2.7v2.05c0,.66,.23,1.29,.65,1.8l2.1,2.52c.75,.91,1.99,1.25,3.1,.86l5.69-2c.3-.11,.62-.16,.93-.16h2.09c.98,0,1.89,.51,2.4,1.34l2.91,4.74c.27,.44,.42,.95,.42,1.47v20.44c0,.3,.05,.59,.14,.88l5.88,17.91c.28,.85,.94,1.51,1.79,1.79l4.44,1.48c1.21,.4,2.55-.06,3.25-1.13l3.17-4.87c.17-.26,.29-.54,.37-.83l2.57-9.9c.32-1.24,1.44-2.11,2.73-2.11h3.49c.7,0,1.38-.26,1.9-.74l10.53-9.64c.52-.47,1.2-.74,1.9-.74Z"/>
                </g>
                <circle class="cx" cx="319.65" cy="264.29" r="147.2"/>
                <path class="cf" d="M187.26,280.5c0-81.3,65.9-147.2,147.2-147.2,39.08,0,74.58,15.26,100.93,40.11-26.95-34.28-68.76-56.32-115.75-56.32-81.3,0-147.2,65.9-147.2,147.2,0,42.21,17.8,80.25,46.27,107.09-19.68-25.03-31.45-56.57-31.45-90.88Z"/>
              </g>
              <g>
                <path class="ck" d="M531.05,505.7c15.7-17.8,8.73-80.35,6.68-96.09-.27-2.07-2.24-3.62-4.59-3.62H105.65c-2.37,0-4.37,1.6-4.61,3.68-9.01,78.19,6.62,96.02,6.62,96.02h423.38Z"/>
                <path class="ch" d="M101.05,409.68c-6.82,59.16,.47,83.76,4.43,92.23h33.85c-31.95-17.31-21.63-87.55,14.7-87.55h384.3c-.22-1.85-.42-3.46-.58-4.74-.27-2.07-2.24-3.62-4.59-3.62H105.65c-2.37,0-4.37,1.6-4.61,3.68Z"/>
                <path class="fe" d="M532.71,509.55H106.01c-2.12,0-3.85-1.72-3.85-3.85h0c0-2.12,1.72-3.85,3.85-3.85h426.7c2.12,0,3.85,1.72,3.85,3.85h0c0,2.12-1.72,3.85-3.85,3.85Z"/>
                <g>
                  <g>
                    <path class="fb" d="M153.69,420.94h44.21c3.54,0,6.42,2.88,6.42,6.42v14.97c0,3.54-2.88,6.42-6.42,6.42h-44.21c-3.54,0-6.42-2.88-6.42-6.42v-14.97c0-3.54,2.88-6.42,6.42-6.42Z"/>
                    <path class="fe" d="M197.9,422.37c2.75,0,4.99,2.23,4.99,4.99v14.98c0,2.75-2.23,4.99-4.99,4.99h-44.21c-2.75,0-4.99-2.23-4.99-4.99v-14.98c0-2.75,2.23-4.99,4.99-4.99h44.21m0-2.87h-44.21c-4.33,0-7.85,3.52-7.85,7.85v14.98c0,4.33,3.52,7.85,7.85,7.85h44.21c4.33,0,7.85-3.52,7.85-7.85v-14.98c0-4.33-3.52-7.85-7.85-7.85h0Z"/>
                  </g>
                  <g>
                    <path class="dn" d="M170.58,428.78c3.79,3.35,3.79,8.78,0,12.13s-9.93,3.35-13.72,0c-3.79-3.35-3.79-8.78,0-12.13,3.79-3.35,9.93-3.35,13.72,0Z"/>
                    <polygon class="fa" points="169.59 438.82 168.22 440.04 157.85 430.88 159.23 429.66 169.59 438.82"/>
                  </g>
                  <rect class="dv" x="176.64" y="427.55" width="18.83" height="14.6" rx="1.38" ry="1.38"/>
                  <g>
                    <rect class="dh" x="177.97" y="428.39" width="10.68" height="12.91" rx="1.48" ry="1.48"/>
                    <rect class="ct" x="177.97" y="428.88" width="9.4" height="11.9" rx="1.36" ry="1.36"/>
                    <rect class="dv" x="185.26" y="430.14" width=".49" height="9.37"/>
                  </g>
                </g>
                <g>
                  <g>
                    <path class="fb" d="M441.39,420.94h44.21c3.54,0,6.42,2.88,6.42,6.42v14.97c0,3.54-2.88,6.42-6.42,6.42h-44.21c-3.54,0-6.42-2.88-6.42-6.42v-14.97c0-3.54,2.88-6.42,6.42-6.42Z"/>
                    <path class="fe" d="M485.61,422.37c2.75,0,4.99,2.23,4.99,4.99v14.98c0,2.75-2.23,4.99-4.99,4.99h-44.21c-2.75,0-4.99-2.23-4.99-4.99v-14.98c0-2.75,2.23-4.99,4.99-4.99h44.21m0-2.87h-44.21c-4.33,0-7.85,3.52-7.85,7.85v14.98c0,4.33,3.52,7.85,7.85,7.85h44.21c4.33,0,7.85-3.52,7.85-7.85v-14.98c0-4.33-3.52-7.85-7.85-7.85h0Z"/>
                  </g>
                  <g>
                    <path class="dn" d="M468.71,428.78c-3.79,3.35-3.79,8.78,0,12.13,3.79,3.35,9.93,3.35,13.72,0s3.79-8.78,0-12.13c-3.79-3.35-9.93-3.35-13.72,0Z"/>
                    <polygon class="fa" points="469.7 438.82 471.08 440.04 481.44 430.88 480.07 429.66 469.7 438.82"/>
                  </g>
                  <rect class="dv" x="443.82" y="427.55" width="18.83" height="14.6" rx="1.38" ry="1.38" transform="translate(906.47 869.7) rotate(180)"/>
                  <g>
                    <rect class="dh" x="450.65" y="428.39" width="10.68" height="12.91" rx="1.48" ry="1.48" transform="translate(911.97 869.7) rotate(180)"/>
                    <rect class="ct" x="451.92" y="428.88" width="9.4" height="11.9" rx="1.36" ry="1.36" transform="translate(913.25 869.66) rotate(180)"/>
                    <rect class="dv" x="453.55" y="430.14" width=".49" height="9.37" transform="translate(907.58 869.66) rotate(180)"/>
                  </g>
                </g>
                <g>
                  <g>
                    <g>
                      <g>
                        <path class="fe" d="M246.62,469.79c-6.14,0-11.14-5-11.14-11.14s5-11.14,11.14-11.14h23.58c6.14,0,11.14,5,11.14,11.14s-5,11.14-11.14,11.14h-23.58Z"/>
                        <path class="fe" d="M270.21,448.6c5.56,0,10.06,4.5,10.06,10.06s-4.5,10.06-10.06,10.06h-23.58c-5.56,0-10.06-4.5-10.06-10.06s4.5-10.06,10.06-10.06h23.58m0-2.15h-23.58c-6.73,0-12.21,5.48-12.21,12.21s5.48,12.21,12.21,12.21h23.58c6.73,0,12.21-5.48,12.21-12.21s-5.48-12.21-12.21-12.21h0Z"/>
                      </g>
                      <g>
                        <path class="fb" d="M246.62,466.92c-6.14,0-11.14-5-11.14-11.14s5-11.14,11.14-11.14h23.58c6.14,0,11.14,5,11.14,11.14s-5,11.14-11.14,11.14h-23.58Z"/>
                        <path class="fe" d="M270.21,445.72c5.56,0,10.06,4.5,10.06,10.06s-4.5,10.06-10.06,10.06h-23.58c-5.56,0-10.06-4.5-10.06-10.06s4.5-10.06,10.06-10.06h23.58m0-2.15h-23.58c-6.73,0-12.21,5.48-12.21,12.21s5.48,12.21,12.21,12.21h23.58c6.73,0,12.21-5.48,12.21-12.21s-5.48-12.21-12.21-12.21h0Z"/>
                      </g>
                    </g>
                    <g>
                      <ellipse class="eq" cx="242.97" cy="455.78" rx="1.93" ry="1.71"/>
                      <path class="eq" d="M275.79,455.78c0,.94-.87,1.71-1.93,1.71s-1.93-.77-1.93-1.71,.87-1.71,1.93-1.71,1.93,.77,1.93,1.71Z"/>
                    </g>
                  </g>
                  <g>
                    <g>
                      <g>
                        <path class="fe" d="M368.97,469.79c-6.14,0-11.14-5-11.14-11.14s5-11.14,11.14-11.14h23.58c6.14,0,11.14,5,11.14,11.14s-5,11.14-11.14,11.14h-23.58Z"/>
                        <path class="fe" d="M392.55,448.6c5.56,0,10.06,4.5,10.06,10.06s-4.5,10.06-10.06,10.06h-23.58c-5.56,0-10.06-4.5-10.06-10.06s4.5-10.06,10.06-10.06h23.58m0-2.15h-23.58c-6.73,0-12.21,5.48-12.21,12.21s5.48,12.21,12.21,12.21h23.58c6.73,0,12.21-5.48,12.21-12.21s-5.48-12.21-12.21-12.21h0Z"/>
                      </g>
                      <g>
                        <path class="fb" d="M368.97,466.92c-6.14,0-11.14-5-11.14-11.14s5-11.14,11.14-11.14h23.58c6.14,0,11.14,5,11.14,11.14s-5,11.14-11.14,11.14h-23.58Z"/>
                        <path class="fe" d="M392.55,445.72c5.56,0,10.06,4.5,10.06,10.06s-4.5,10.06-10.06,10.06h-23.58c-5.56,0-10.06-4.5-10.06-10.06s4.5-10.06,10.06-10.06h23.58m0-2.15h-23.58c-6.73,0-12.21,5.48-12.21,12.21s5.48,12.21,12.21,12.21h23.58c6.73,0,12.21-5.48,12.21-12.21s-5.48-12.21-12.21-12.21h0Z"/>
                      </g>
                    </g>
                    <g>
                      <ellipse class="eq" cx="365.31" cy="455.78" rx="1.93" ry="1.71"/>
                      <ellipse class="eq" cx="396.2" cy="455.78" rx="1.93" ry="1.71"/>
                    </g>
                  </g>
                  <g>
                    <path class="ct" d="M369.75,453.9v19.73c0,4.85-5.05,8.44-10.41,7.4-15.86-3.09-47.59-7.36-79.18-.42-5.39,1.18-10.6-2.44-10.6-7.35v-19.37c0-2.93-2.68-5.3-5.99-5.3h-10.55c-3.31,0-5.99,2.37-5.99,5.3v29.47c0,12.34,11.31,22.34,25.27,22.34h94.73c13.95,0,25.27-10,25.27-22.34v-29.47c0-2.93-2.68-5.3-5.99-5.3h-10.55c-3.31,0-5.99,2.37-5.99,5.3Z"/>
                    <path class="dv" d="M375.03,448.66c-2.97,.32-5.28,2.53-5.28,5.24v19.73c0,4.85-5.05,8.44-10.41,7.4-15.86-3.09-47.59-7.36-79.18-.42-5.39,1.18-10.6-2.44-10.6-7.35v-19.37c0-2.71-2.31-4.92-5.28-5.24v30.21c0,5.17,4.74,9.35,10.58,9.35h89.58c5.84,0,10.58-4.19,10.58-9.35v-30.21Z"/>
                  </g>
                </g>
                <rect class="ct" x="107.36" y="398.68" width="423.99" height="7.32"/>
              </g>
            </g>
          </g>
          <g>
            <polygon class="ee" points="555.2 27.57 508.71 10.8 507.57 11.61 532.06 38.98 555.2 27.57"/>
            <path class="cb" d="M642.98,8.37c.47-1.66-.31-3.4-1.85-4.16-5.68-2.79-20.57-8.14-39.04,.51-21.27,9.96-138.77,68.28-162.93,80.28-1.2,.6-.82,2.41,.53,2.46,9.11,.34,30.3,.17,57.53-6.34,36.68-8.77,115.18-40.67,134.02-55.07,7.5-5.73,10.58-13.56,11.74-17.67Z"/>
            <path class="cd" d="M605.06,10.73c-14.06,6.02-121.74,58.82-157.18,76.82-3.33,.05-6.09,0-8.2-.08-1.34-.05-1.73-1.86-.53-2.46,24.16-12,141.66-70.33,162.93-80.28,18.48-8.65,33.36-3.3,39.04-.51,1.54,.76,2.32,2.5,1.85,4.16,.48-2.84-4.17-.33-12.14-.79-5.26-.3-18.32-.05-25.78,3.14Z"/>
            <g>
              <path class="eq" d="M628.08,2.13c.51-.49,1.01-1.03,1.37-1.57,1.28,.16,3.02,.6,3.02,.6,0,0-.55,.8-1.54,1.89-.32,.36-.85,.44-1.27,.2-.76-.43-1.27-.83-1.58-1.12Z"/>
              <path class="eq" d="M624.52,4.7c.51-.31,1.77-1,3-2.06,.3,.29,.82,.71,1.61,1.17,.34,.2,.4,.67,.11,.94-1.48,1.36-3.34,2.71-5.33,3.28,0,0-.88-2.42,.6-3.32Z"/>
            </g>
            <g>
              <g>
                <rect class="cs" x="589.66" y="21.23" width="2.95" height="4.08" rx=".6" ry=".6" transform="translate(1131.59 -217.35) rotate(153.75)"/>
                <rect class="di" x="589.92" y="21.47" width="2.44" height="3.61" rx=".37" ry=".37" transform="translate(1131.61 -217.29) rotate(153.75)"/>
              </g>
              <g>
                <rect class="cv" x="585.8" y="23.14" width="2.95" height="4.08" rx=".6" ry=".6" transform="translate(1125.1 -212.02) rotate(153.75)"/>
                <rect class="em" x="586.05" y="23.38" width="2.44" height="3.61" rx=".37" ry=".37" transform="translate(1125.13 -211.97) rotate(153.75)"/>
              </g>
              <g>
                <rect class="dy" x="581.93" y="25.04" width="2.95" height="4.08" rx=".6" ry=".6" transform="translate(1118.62 -206.7) rotate(153.75)"/>
                <rect class="eu" x="582.19" y="25.28" width="2.44" height="3.61" rx=".37" ry=".37" transform="translate(1118.64 -206.65) rotate(153.75)"/>
              </g>
              <g>
                <rect class="eg" x="578.07" y="26.95" width="2.95" height="4.08" rx=".6" ry=".6" transform="translate(1112.13 -201.37) rotate(153.75)"/>
                <rect class="ec" x="578.32" y="27.19" width="2.44" height="3.61" rx=".37" ry=".37" transform="translate(1112.15 -201.32) rotate(153.75)"/>
              </g>
              <g>
                <rect class="ep" x="574.2" y="28.85" width="2.95" height="4.08" rx=".6" ry=".6" transform="translate(1105.64 -196.05) rotate(153.75)"/>
                <rect class="cl" x="574.46" y="29.09" width="2.44" height="3.61" rx=".37" ry=".37" transform="translate(1105.66 -196) rotate(153.75)"/>
              </g>
              <g>
                <rect class="ez" x="570.34" y="30.76" width="2.95" height="4.08" rx=".6" ry=".6" transform="translate(1099.15 -190.72) rotate(153.75)"/>
                <rect class="fd" x="570.59" y="31" width="2.44" height="3.61" rx=".37" ry=".37" transform="translate(1099.19 -190.64) rotate(153.76)"/>
              </g>
              <g>
                <rect class="dq" x="566.48" y="32.67" width="2.95" height="4.08" rx=".6" ry=".6" transform="translate(1092.67 -185.4) rotate(153.75)"/>
                <rect class="en" x="566.73" y="32.9" width="2.44" height="3.61" rx=".37" ry=".37" transform="translate(1092.7 -185.31) rotate(153.76)"/>
              </g>
              <g>
                <rect class="dd" x="562.61" y="34.57" width="2.95" height="4.08" rx=".6" ry=".6" transform="translate(1086.18 -180.08) rotate(153.75)"/>
                <path class="er" d="M563.24,34.81h1.7c.21,0,.37,.17,.37,.37v2.86c0,.21-.17,.37-.37,.37h-1.69c-.21,0-.37-.17-.37-.37v-2.86c0-.21,.17-.37,.37-.37Z" transform="translate(1086.22 -179.99) rotate(153.76)"/>
              </g>
              <g>
                <rect class="cz" x="558.75" y="36.48" width="2.95" height="4.08" rx=".6" ry=".6" transform="translate(1079.68 -174.79) rotate(153.74)"/>
                <path class="dw" d="M559.38,36.72h1.7c.21,0,.37,.17,.37,.37v2.86c0,.21-.17,.37-.37,.37h-1.7c-.21,0-.37-.17-.37-.37v-2.86c0-.21,.17-.37,.37-.37Z" transform="translate(1079.73 -174.66) rotate(153.76)"/>
              </g>
              <g>
                <rect class="ea" x="554.88" y="38.38" width="2.95" height="4.08" rx=".6" ry=".6" transform="translate(1073.19 -169.47) rotate(153.74)"/>
                <path class="fg" d="M555.51,38.62h1.7c.21,0,.37,.17,.37,.37v2.86c0,.21-.17,.37-.37,.37h-1.69c-.21,0-.37-.17-.37-.37v-2.86c0-.21,.17-.37,.37-.37Z" transform="translate(1073.24 -169.34) rotate(153.76)"/>
              </g>
              <g>
                <rect class="cm" x="551.02" y="40.29" width="2.95" height="4.08" rx=".6" ry=".6" transform="translate(1066.7 -164.14) rotate(153.74)"/>
                <rect class="cn" x="551.27" y="40.53" width="2.44" height="3.61" rx=".37" ry=".37" transform="translate(1066.75 -164.02) rotate(153.76)"/>
              </g>
              <g>
                <rect class="et" x="547.15" y="42.19" width="2.95" height="4.08" rx=".6" ry=".6" transform="translate(1060.22 -158.82) rotate(153.74)"/>
                <rect class="ev" x="547.41" y="42.43" width="2.44" height="3.61" rx=".37" ry=".37" transform="translate(1060.27 -158.69) rotate(153.76)"/>
              </g>
              <g>
                <path class="df" d="M543.89,44.1h1.75c.33,0,.6,.27,.6,.6v2.88c0,.33-.27,.6-.6,.6h-1.75c-.33,0-.6-.27-.6-.6v-2.88c0-.33,.27-.6,.6-.6Z" transform="translate(1053.73 -153.49) rotate(153.74)"/>
                <path class="cr" d="M543.92,44.34h1.7c.21,0,.37,.17,.37,.37v2.86c0,.21-.17,.37-.37,.37h-1.7c-.21,0-.37-.17-.37-.37v-2.86c0-.21,.17-.37,.37-.37Z" transform="translate(1053.78 -153.37) rotate(153.76)"/>
              </g>
              <g>
                <rect class="dz" x="539.43" y="46.01" width="2.95" height="4.08" rx=".6" ry=".6" transform="translate(1047.24 -148.17) rotate(153.74)"/>
                <path class="de" d="M540.05,46.24h1.7c.21,0,.37,.17,.37,.37v2.86c0,.21-.17,.37-.37,.37h-1.69c-.21,0-.37-.17-.37-.37v-2.86c0-.21,.17-.37,.37-.37Z" transform="translate(1047.29 -148.05) rotate(153.76)"/>
              </g>
              <g>
                <path class="da" d="M536.16,47.91h1.75c.33,0,.6,.27,.6,.6v2.88c0,.33-.27,.6-.6,.6h-1.75c-.33,0-.6-.27-.6-.6v-2.88c0-.33,.27-.6,.6-.6Z" transform="translate(1040.76 -142.84) rotate(153.74)"/>
                <path class="do" d="M536.19,48.15h1.7c.21,0,.37,.17,.37,.37v2.86c0,.21-.17,.37-.37,.37h-1.7c-.21,0-.37-.17-.37-.37v-2.86c0-.21,.17-.37,.37-.37Z" transform="translate(1040.8 -142.72) rotate(153.76)"/>
              </g>
              <g>
                <path class="dt" d="M532.3,49.82h1.75c.33,0,.6,.27,.6,.6v2.88c0,.33-.27,.6-.6,.6h-1.75c-.33,0-.6-.27-.6-.6v-2.88c0-.33,.27-.6,.6-.6Z" transform="translate(1034.27 -137.52) rotate(153.74)"/>
                <path class="fc" d="M532.33,50.06h1.7c.21,0,.37,.17,.37,.37v2.86c0,.21-.17,.37-.37,.37h-1.7c-.21,0-.37-.17-.37-.37v-2.86c0-.21,.17-.37,.37-.37Z" transform="translate(1034.32 -137.4) rotate(153.76)"/>
              </g>
              <g>
                <rect class="ew" x="527.83" y="51.72" width="2.95" height="4.08" rx=".6" ry=".6" transform="translate(1027.78 -132.2) rotate(153.74)"/>
                <rect class="cj" x="528.09" y="51.96" width="2.44" height="3.61" rx=".37" ry=".37" transform="translate(1027.83 -132.07) rotate(153.76)"/>
              </g>
              <g>
                <path class="ds" d="M524.57,53.63h1.75c.33,0,.6,.27,.6,.6v2.88c0,.33-.27,.6-.6,.6h-1.75c-.33,0-.6-.27-.6-.6v-2.88c0-.33,.27-.6,.6-.6Z" transform="translate(1021.3 -126.87) rotate(153.74)"/>
                <rect class="ci" x="524.22" y="53.87" width="2.44" height="3.61" rx=".37" ry=".37" transform="translate(1021.34 -126.75) rotate(153.76)"/>
              </g>
              <g>
                <rect class="bz" x="520.1" y="55.53" width="2.95" height="4.08" rx=".6" ry=".6" transform="translate(1014.82 -121.51) rotate(153.75)"/>
                <path class="dr" d="M520.73,55.77h1.7c.21,0,.37,.17,.37,.37v2.86c0,.21-.17,.37-.37,.37h-1.7c-.21,0-.37-.17-.37-.37v-2.86c0-.21,.17-.37,.37-.37Z" transform="translate(1014.84 -121.46) rotate(153.75)"/>
              </g>
              <g>
                <rect class="dp" x="516.24" y="57.44" width="2.95" height="4.08" rx=".6" ry=".6" transform="translate(1008.34 -116.19) rotate(153.75)"/>
                <path class="db" d="M516.87,57.68h1.7c.21,0,.37,.17,.37,.37v2.86c0,.21-.17,.37-.37,.37h-1.7c-.21,0-.37-.17-.37-.37v-2.86c0-.21,.17-.37,.37-.37Z" transform="translate(1008.35 -116.14) rotate(153.75)"/>
              </g>
              <g>
                <rect class="ey" x="512.37" y="59.35" width="2.95" height="4.08" rx=".6" ry=".6" transform="translate(1001.85 -110.86) rotate(153.75)"/>
                <rect class="ej" x="512.63" y="59.58" width="2.44" height="3.61" rx=".37" ry=".37" transform="translate(1001.86 -110.82) rotate(153.75)"/>
              </g>
              <g>
                <rect class="dx" x="508.51" y="61.25" width="2.95" height="4.08" rx=".6" ry=".6" transform="translate(995.36 -105.54) rotate(153.75)"/>
                <rect class="dl" x="508.76" y="61.49" width="2.44" height="3.61" rx=".37" ry=".37" transform="translate(995.38 -105.49) rotate(153.75)"/>
              </g>
              <g>
                <rect class="eo" x="504.65" y="63.16" width="2.95" height="4.08" rx=".6" ry=".6" transform="translate(988.87 -100.21) rotate(153.75)"/>
                <path class="cu" d="M505.27,63.4h1.69c.21,0,.37,.17,.37,.37v2.86c0,.21-.17,.37-.37,.37h-1.7c-.21,0-.37-.17-.37-.37v-2.86c0-.21,.17-.37,.37-.37Z" transform="translate(988.89 -100.17) rotate(153.75)"/>
              </g>
              <g>
                <rect class="ed" x="500.78" y="65.06" width="2.95" height="4.08" rx=".6" ry=".6" transform="translate(982.39 -94.89) rotate(153.75)"/>
                <path class="eh" d="M501.41,65.3h1.7c.21,0,.37,.17,.37,.37v2.86c0,.21-.17,.37-.37,.37h-1.7c-.21,0-.37-.17-.37-.37v-2.86c0-.21,.17-.37,.37-.37Z" transform="translate(982.4 -94.84) rotate(153.75)"/>
              </g>
              <g>
                <rect class="ei" x="496.92" y="66.97" width="2.95" height="4.08" rx=".6" ry=".6" transform="translate(975.9 -89.57) rotate(153.75)"/>
                <path class="ff" d="M497.55,67.21h1.69c.21,0,.37,.17,.37,.37v2.86c0,.21-.17,.37-.37,.37h-1.7c-.21,0-.37-.17-.37-.37v-2.86c0-.21,.17-.37,.37-.37Z" transform="translate(975.91 -89.52) rotate(153.75)"/>
              </g>
              <g>
                <rect class="ek" x="493.05" y="68.87" width="2.95" height="4.08" rx=".6" ry=".6" transform="translate(969.41 -84.24) rotate(153.75)"/>
                <rect class="dj" x="493.31" y="69.11" width="2.44" height="3.61" rx=".37" ry=".37" transform="translate(969.43 -84.2) rotate(153.75)"/>
              </g>
              <g>
                <rect class="eb" x="489.19" y="70.78" width="2.95" height="4.08" rx=".6" ry=".6" transform="translate(962.93 -78.92) rotate(153.75)"/>
                <path class="el" d="M489.82,71.02h1.7c.21,0,.37,.17,.37,.37v2.86c0,.21-.17,.37-.37,.37h-1.7c-.21,0-.37-.17-.37-.37v-2.86c0-.21,.17-.37,.37-.37Z" transform="translate(962.94 -78.87) rotate(153.75)"/>
              </g>
            </g>
            <g>
              <path class="dc" d="M598.49,43.76s-13.58-4.96-34.11,3.42c-16.93,6.91-47.85,24.25-47.72,28.43,.06,1.95,1.5,1.24-.32,3.45l-49,38.7,9.17-3,121.99-71Z"/>
              <path class="cg" d="M580.2,42.83l-103.24,67.32,39.37-31.09c1.82-2.21,.38-1.5,.32-3.45-.12-4.17,30.79-21.51,47.72-28.43,5.9-2.41,11.23-3.71,15.83-4.35Z"/>
            </g>
            <g>
              <path class="ex" d="M476.8,66.33c-6.46,.42-37.17-8.8-49.19-12.5-3.11-.96-6.47-.6-9.31,.97l-5.3,2.94,29.32,25.69,34.49-17.11Z"/>
              <path class="cc" d="M428.57,56.12c-3.11-.96-6.47-.6-9.31,.97l-4.29,2.38-1.98-1.73,5.3-2.94c2.84-1.58,6.2-1.93,9.31-.97,12.02,3.7,42.73,12.92,49.19,12.5h0c-8.13,4.03-38.09-7.09-48.23-10.21Z"/>
            </g>
            <g>
              <path class="es" d="M459.94,81.73c-.67-.32-30.17,18.73-30.17,18.73l-8.48,2.74,20.86-18.01,14.07-4.26,3.72,.8Z"/>
              <polygon class="ce" points="456.22 80.93 421.29 103.2 442.15 85.19 456.22 80.93"/>
            </g>
          </g>
        </g>
      </g>
    </g>
  </g>
</svg>