<?xml version="1.0" encoding="UTF-8"?>
<svg id="b" data-name="Capa 2" xmlns="http://www.w3.org/2000/svg" viewBox="0 0 50.96 50.96">
  <defs>
    <style>
      .d {
        fill: #fff;
      }

      .e {
        fill: #383838;
      }
    </style>
  </defs>
  <g id="c" data-name="Capa 1">
    <g>
      <path class="e" d="M50.96,25.48c0,14.07-11.41,25.48-25.48,25.48S0,39.56,0,25.48,11.41,0,25.48,0s25.48,11.41,25.48,25.48Z"/>
      <path class="d" d="M28.74,41.41l1.62-1.62,1.57-14.87c7.43-7.43,5.79-10.9,5.79-10.9,0,0-3.43-1.67-10.9,5.79l-14.87,1.57-1.62,1.62,12.81,1.72c-1.46,2.05-3.04,4.47-4.76,7.3l-4.02-.43-1.81,1.81,3.91,1.86,1.86,3.91,1.3-1.3,.08-4.53c2.83-1.71,5.26-3.3,7.31-4.76l1.72,12.81Z"/>
    </g>
  </g>
</svg>