<?xml version="1.0" encoding="UTF-8"?>
<svg id="b" data-name="Capa 2" xmlns="http://www.w3.org/2000/svg" viewBox="0 0 238.73 50.96">
  <defs>
    <style>
      .d {
        fill: #fff;
      }

      .e {
        fill: #383838;
      }
    </style>
  </defs>
  <g id="c" data-name="Capa 1">
    <g>
      <g>
        <path class="e" d="M75.54,36.98l-5.19-25.56h5.55l3.66,21.1h.08l11.17-21.1h5.99l-15.76,28.14h-2.61c-1.61,0-2.57-.86-2.89-2.57Z"/>
        <path class="e" d="M93.89,38.08c-1.43-1.19-2.15-2.77-2.15-4.72,0-.48,.04-.96,.12-1.45l.84-4.7c.46-2.52,1.51-4.49,3.18-5.91,1.66-1.42,3.75-2.13,6.27-2.13h3.58c2.44,0,4.37,.58,5.79,1.75,1.42,1.17,2.13,2.74,2.13,4.72,0,.3-.05,.82-.16,1.57l-.84,4.7c-.46,2.52-1.5,4.48-3.14,5.87-1.63,1.39-3.75,2.09-6.35,2.09h-3.58c-2.36,0-4.25-.6-5.69-1.79Zm9.47-2.91c1.02,0,1.88-.33,2.57-.98,.7-.66,1.14-1.56,1.33-2.71l.68-3.9c.05-.43,.08-.72,.08-.88,0-.86-.23-1.54-.7-2.05-.47-.51-1.12-.76-1.95-.76h-3.42c-1.02,0-1.87,.33-2.55,.98-.68,.66-1.12,1.56-1.31,2.71l-.68,3.9c-.05,.43-.08,.74-.08,.92,0,.86,.23,1.53,.7,2.03,.47,.5,1.11,.74,1.91,.74h3.42Z"/>
        <path class="e" d="M117.56,38.47c-.98-.72-1.47-1.86-1.47-3.42,0-.59,.05-1.15,.16-1.69l3.86-21.95h5.47l-3.82,21.63c-.03,.13-.04,.32-.04,.56,0,.43,.12,.75,.36,.96,.24,.21,.64,.32,1.21,.32h2.17l-.8,4.66h-2.57c-2.04,0-3.54-.36-4.52-1.09Z"/>
        <path class="e" d="M129.08,38.59c-1.18-.86-1.77-2.01-1.77-3.46,0-.21,.03-.54,.08-.96l.28-1.57c.32-1.74,1.16-3.1,2.51-4.08,1.35-.98,3.09-1.47,5.21-1.47h2.41c.78,0,1.61,.09,2.51,.28,.9,.19,1.68,.44,2.35,.76l.36-2.09c.03-.11,.04-.27,.04-.48,0-.54-.18-.96-.54-1.29-.36-.32-.86-.48-1.51-.48h-3.42c-.78,0-1.42,.17-1.93,.52-.51,.35-.82,.82-.92,1.41h-5.31c.38-2.06,1.3-3.66,2.77-4.8,1.47-1.14,3.35-1.71,5.63-1.71h3.42c2.25,0,4.04,.51,5.37,1.53,1.33,1.02,1.99,2.39,1.99,4.1,0,.4-.04,.8-.12,1.21l-2.41,13.55h-5.06l.44-2.41c-.83,.86-1.71,1.53-2.63,2.01-.92,.48-1.79,.72-2.59,.72h-2.33c-2.04,0-3.64-.43-4.82-1.29Zm7.88-2.89c.96,0,1.89-.25,2.77-.76,.88-.51,1.58-1.19,2.09-2.05l.12-.68c-.35-.32-.9-.58-1.65-.76-.75-.19-1.55-.28-2.41-.28h-2.49c-.67,0-1.22,.15-1.65,.46-.43,.31-.7,.74-.8,1.31l-.2,1.04c-.11,.51,.03,.92,.42,1.25,.39,.32,.94,.48,1.67,.48h2.13Z"/>
        <path class="e" d="M150.26,35.53c.27-1.5,.77-2.85,1.51-4.06,.74-1.21,1.95-2.26,3.64-3.18l11.05-5.95c.51-.29,.95-.68,1.33-1.17,.38-.48,.6-.95,.68-1.41l.2-1.29c.03-.11,.04-.25,.04-.44,0-.62-.23-1.11-.68-1.49-.46-.38-1.09-.56-1.89-.56h-3.7c-1.04,0-1.93,.38-2.65,1.15s-1.21,1.84-1.45,3.24h-5.55c.54-2.92,1.67-5.2,3.4-6.83,1.73-1.63,3.89-2.45,6.49-2.45h3.78c2.44,0,4.37,.54,5.79,1.63,1.42,1.09,2.13,2.55,2.13,4.4,0,.43-.04,.88-.12,1.37l-.24,1.29c-.24,1.42-.75,2.65-1.53,3.7-.78,1.04-1.89,1.94-3.34,2.69l-10.69,5.63c-.7,.38-1.25,.79-1.67,1.25-.42,.46-.69,1.02-.82,1.69h15.56l-.84,4.82h-21.14l.72-4.02Z"/>
        <path class="e" d="M176.09,38.3c-1.35-1.04-2.03-2.45-2.03-4.22,0-.4,.04-.8,.12-1.21h5.39c-.03,.11-.04,.25-.04,.44,0,.62,.2,1.1,.6,1.45,.4,.35,.96,.52,1.69,.52h3.62c.78,0,1.39-.11,1.85-.34,.46-.23,.72-.56,.8-.98l.12-.68c.05-.27-.03-.52-.26-.74-.23-.23-.56-.38-.98-.46l-6.75-1.21c-1.42-.27-2.53-.77-3.34-1.51-.8-.74-1.21-1.63-1.21-2.67,0-.16,.03-.4,.08-.72l.24-1.33c.29-1.71,1.19-3.05,2.67-4.02s3.4-1.45,5.73-1.45h3.14c2.17,0,3.89,.49,5.17,1.47,1.27,.98,1.91,2.29,1.91,3.92,0,.35-.04,.72-.12,1.13h-5.39c.03-.08,.04-.2,.04-.36,0-.48-.17-.86-.5-1.15-.33-.28-.78-.42-1.35-.42h-3.06c-.8,0-1.45,.11-1.95,.32-.5,.21-.78,.51-.86,.88l-.12,.64c-.05,.27,.01,.51,.2,.72,.19,.21,.5,.36,.92,.44l7.07,1.33c1.34,.27,2.39,.77,3.16,1.51,.76,.74,1.15,1.59,1.15,2.55,0,.27-.01,.47-.04,.6l-.24,1.45c-.29,1.8-1.17,3.19-2.63,4.18-1.46,.99-3.36,1.49-5.69,1.49h-3.62c-2.3,0-4.13-.52-5.49-1.57Z"/>
        <path class="e" d="M198.15,38.3c-1.35-1.04-2.03-2.45-2.03-4.22,0-.4,.04-.8,.12-1.21h5.39c-.03,.11-.04,.25-.04,.44,0,.62,.2,1.1,.6,1.45,.4,.35,.96,.52,1.69,.52h3.62c.78,0,1.39-.11,1.85-.34,.46-.23,.72-.56,.8-.98l.12-.68c.05-.27-.03-.52-.26-.74-.23-.23-.56-.38-.98-.46l-6.75-1.21c-1.42-.27-2.53-.77-3.34-1.51-.8-.74-1.21-1.63-1.21-2.67,0-.16,.03-.4,.08-.72l.24-1.33c.29-1.71,1.19-3.05,2.67-4.02s3.4-1.45,5.73-1.45h3.14c2.17,0,3.89,.49,5.17,1.47,1.27,.98,1.91,2.29,1.91,3.92,0,.35-.04,.72-.12,1.13h-5.39c.03-.08,.04-.2,.04-.36,0-.48-.17-.86-.5-1.15-.33-.28-.78-.42-1.35-.42h-3.06c-.8,0-1.45,.11-1.95,.32-.5,.21-.78,.51-.86,.88l-.12,.64c-.05,.27,.01,.51,.2,.72,.19,.21,.5,.36,.92,.44l7.07,1.33c1.34,.27,2.39,.77,3.16,1.51,.76,.74,1.15,1.59,1.15,2.55,0,.27-.01,.47-.04,.6l-.24,1.45c-.29,1.8-1.17,3.19-2.63,4.18-1.46,.99-3.36,1.49-5.69,1.49h-3.62c-2.3,0-4.13-.52-5.49-1.57Z"/>
        <path class="e" d="M220.22,38.3c-1.35-1.04-2.03-2.45-2.03-4.22,0-.4,.04-.8,.12-1.21h5.39c-.03,.11-.04,.25-.04,.44,0,.62,.2,1.1,.6,1.45,.4,.35,.96,.52,1.69,.52h3.62c.78,0,1.39-.11,1.85-.34,.46-.23,.72-.56,.8-.98l.12-.68c.05-.27-.03-.52-.26-.74-.23-.23-.56-.38-.98-.46l-6.75-1.21c-1.42-.27-2.53-.77-3.34-1.51-.8-.74-1.21-1.63-1.21-2.67,0-.16,.03-.4,.08-.72l.24-1.33c.29-1.71,1.19-3.05,2.67-4.02s3.4-1.45,5.73-1.45h3.14c2.17,0,3.89,.49,5.17,1.47,1.27,.98,1.91,2.29,1.91,3.92,0,.35-.04,.72-.12,1.13h-5.39c.03-.08,.04-.2,.04-.36,0-.48-.17-.86-.5-1.15-.33-.28-.78-.42-1.35-.42h-3.06c-.8,0-1.45,.11-1.95,.32-.5,.21-.78,.51-.86,.88l-.12,.64c-.05,.27,.01,.51,.2,.72,.19,.21,.5,.36,.92,.44l7.07,1.33c1.34,.27,2.39,.77,3.16,1.51,.76,.74,1.15,1.59,1.15,2.55,0,.27-.01,.47-.04,.6l-.24,1.45c-.29,1.8-1.17,3.19-2.63,4.18-1.46,.99-3.36,1.49-5.69,1.49h-3.62c-2.3,0-4.13-.52-5.49-1.57Z"/>
      </g>
      <g>
        <path class="e" d="M50.96,25.48c0,14.07-11.41,25.48-25.48,25.48S0,39.56,0,25.48,11.41,0,25.48,0s25.48,11.41,25.48,25.48Z"/>
        <path class="d" d="M28.74,41.41l1.62-1.62,1.57-14.87c7.43-7.43,5.79-10.9,5.79-10.9,0,0-3.43-1.67-10.9,5.79l-14.87,1.57-1.62,1.62,12.81,1.72c-1.46,2.05-3.04,4.47-4.76,7.3l-4.02-.43-1.81,1.81,3.91,1.86,1.86,3.91,1.3-1.3,.08-4.53c2.83-1.71,5.26-3.3,7.31-4.76l1.72,12.81Z"/>
      </g>
    </g>
  </g>
</svg>